<svg xmlns="http://www.w3.org/2000/svg" xmlns:xlink="http://www.w3.org/1999/xlink" width="1587" zoomAndPan="magnify" viewBox="0 0 1190.25 1683.749949" height="2245" preserveAspectRatio="xMidYMid meet" version="1.0"><defs><g/><clipPath id="5aa04b630f"><path d="M 0 0.40625 L 1189.5 0.40625 L 1189.5 1683.09375 L 0 1683.09375 Z M 0 0.40625 " clip-rule="nonzero"/></clipPath><linearGradient x1="793.70099" gradientTransform="matrix(0.749525, 0, 0, 0.749525, -0.00218433, 0.405201)" y1="0" x2="793.70099" gradientUnits="userSpaceOnUse" y2="2245.007569" id="c1ae1f6ff2"><stop stop-opacity="1" stop-color="rgb(100%, 97.24884%, 97.24884%)" offset="0"/><stop stop-opacity="1" stop-color="rgb(100%, 97.421265%, 97.421265%)" offset="0.125"/><stop stop-opacity="1" stop-color="rgb(100%, 97.764587%, 97.764587%)" offset="0.25"/><stop stop-opacity="1" stop-color="rgb(100%, 98.10791%, 98.10791%)" offset="0.375"/><stop stop-opacity="1" stop-color="rgb(100%, 98.451233%, 98.451233%)" offset="0.5"/><stop stop-opacity="1" stop-color="rgb(100%, 98.796082%, 98.796082%)" offset="0.625"/><stop stop-opacity="1" stop-color="rgb(100%, 99.139404%, 99.139404%)" offset="0.75"/><stop stop-opacity="1" stop-color="rgb(100%, 99.482727%, 99.482727%)" offset="0.875"/><stop stop-opacity="1" stop-color="rgb(100%, 99.82605%, 99.82605%)" offset="1"/></linearGradient><clipPath id="f31b20401d"><path d="M 876 102.625 L 1014.640625 102.625 L 1014.640625 319.988281 L 876 319.988281 Z M 876 102.625 " clip-rule="nonzero"/></clipPath><clipPath id="16020aee86"><path d="M 876 217 L 1014.640625 217 L 1014.640625 319.988281 L 876 319.988281 Z M 876 217 " clip-rule="nonzero"/></clipPath><clipPath id="7e27300830"><rect x="0" width="49" y="0" height="148"/></clipPath><clipPath id="091b12c156"><path d="M 186 1364 L 290 1364 L 290 1466 L 186 1466 Z M 186 1364 " clip-rule="nonzero"/></clipPath><clipPath id="479f662305"><path d="M -123.207031 1330.6875 L 655.296875 1393.15625 L 597.984375 2107.410156 L -180.519531 2044.941406 Z M -123.207031 1330.6875 " clip-rule="nonzero"/></clipPath><clipPath id="f4b50c4c24"><path d="M -107.519531 1331.945312 L 655.296875 1393.15625 L 627.898438 1734.59375 L -134.914062 1673.382812 Z M -107.519531 1331.945312 " clip-rule="nonzero"/></clipPath><clipPath id="9b915c7bf7"><path d="M -123.203125 1330.6875 L 655.300781 1393.15625 L 597.988281 2107.410156 L -180.519531 2044.941406 Z M -123.203125 1330.6875 " clip-rule="nonzero"/></clipPath><clipPath id="8fc98618ad"><path d="M 216 1385 L 268 1385 L 268 1436 L 216 1436 Z M 216 1385 " clip-rule="nonzero"/></clipPath><clipPath id="13d5fc35a4"><path d="M -123.207031 1330.6875 L 655.296875 1393.15625 L 597.984375 2107.410156 L -180.519531 2044.941406 Z M -123.207031 1330.6875 " clip-rule="nonzero"/></clipPath><clipPath id="6b9702777e"><path d="M -107.519531 1331.945312 L 655.296875 1393.15625 L 627.898438 1734.59375 L -134.914062 1673.382812 Z M -107.519531 1331.945312 " clip-rule="nonzero"/></clipPath><clipPath id="fc9c0b12a1"><path d="M -123.203125 1330.6875 L 655.300781 1393.15625 L 597.988281 2107.410156 L -180.519531 2044.941406 Z M -123.203125 1330.6875 " clip-rule="nonzero"/></clipPath><clipPath id="d493096247"><path d="M 186 1373 L 290 1373 L 290 1466 L 186 1466 Z M 186 1373 " clip-rule="nonzero"/></clipPath><clipPath id="1ba6431844"><path d="M -123.207031 1330.6875 L 655.296875 1393.15625 L 597.984375 2107.410156 L -180.519531 2044.941406 Z M -123.207031 1330.6875 " clip-rule="nonzero"/></clipPath><clipPath id="ba1ecf9c2f"><path d="M -107.519531 1331.945312 L 655.296875 1393.15625 L 627.898438 1734.59375 L -134.914062 1673.382812 Z M -107.519531 1331.945312 " clip-rule="nonzero"/></clipPath><clipPath id="cc3a01d53c"><path d="M -123.203125 1330.6875 L 655.300781 1393.15625 L 597.988281 2107.410156 L -180.519531 2044.941406 Z M -123.203125 1330.6875 " clip-rule="nonzero"/></clipPath><clipPath id="cd1f32a7b0"><path d="M 216 1385 L 268 1385 L 268 1428 L 216 1428 Z M 216 1385 " clip-rule="nonzero"/></clipPath><clipPath id="421e086bb8"><path d="M -123.207031 1330.6875 L 655.296875 1393.15625 L 597.984375 2107.410156 L -180.519531 2044.941406 Z M -123.207031 1330.6875 " clip-rule="nonzero"/></clipPath><clipPath id="fca05d84e6"><path d="M -107.519531 1331.945312 L 655.296875 1393.15625 L 627.898438 1734.59375 L -134.914062 1673.382812 Z M -107.519531 1331.945312 " clip-rule="nonzero"/></clipPath><clipPath id="56a3ef5195"><path d="M -123.203125 1330.6875 L 655.300781 1393.15625 L 597.988281 2107.410156 L -180.519531 2044.941406 Z M -123.203125 1330.6875 " clip-rule="nonzero"/></clipPath><clipPath id="f32e95ba93"><path d="M 213 1366 L 283 1366 L 283 1417 L 213 1417 Z M 213 1366 " clip-rule="nonzero"/></clipPath><clipPath id="b8806c6a45"><path d="M -123.207031 1330.6875 L 655.296875 1393.15625 L 597.984375 2107.410156 L -180.519531 2044.941406 Z M -123.207031 1330.6875 " clip-rule="nonzero"/></clipPath><clipPath id="af947d3321"><path d="M -107.519531 1331.945312 L 655.296875 1393.15625 L 627.898438 1734.59375 L -134.914062 1673.382812 Z M -107.519531 1331.945312 " clip-rule="nonzero"/></clipPath><clipPath id="2424bc2d41"><path d="M -123.203125 1330.6875 L 655.300781 1393.15625 L 597.988281 2107.410156 L -180.519531 2044.941406 Z M -123.203125 1330.6875 " clip-rule="nonzero"/></clipPath><clipPath id="0c7b7e9c77"><path d="M 271 1479 L 548 1479 L 548 1683.09375 L 271 1683.09375 Z M 271 1479 " clip-rule="nonzero"/></clipPath><clipPath id="8c23426ed0"><path d="M -123.207031 1330.6875 L 655.296875 1393.15625 L 597.984375 2107.410156 L -180.519531 2044.941406 Z M -123.207031 1330.6875 " clip-rule="nonzero"/></clipPath><clipPath id="bca3004a51"><path d="M -107.519531 1331.945312 L 655.296875 1393.15625 L 627.898438 1734.59375 L -134.914062 1673.382812 Z M -107.519531 1331.945312 " clip-rule="nonzero"/></clipPath><clipPath id="02031394a6"><path d="M -123.203125 1330.6875 L 655.300781 1393.15625 L 597.988281 2107.410156 L -180.519531 2044.941406 Z M -123.203125 1330.6875 " clip-rule="nonzero"/></clipPath><clipPath id="ac7e10c4c7"><path d="M 339 1514 L 470 1514 L 470 1629 L 339 1629 Z M 339 1514 " clip-rule="nonzero"/></clipPath><clipPath id="6e66981d6f"><path d="M -123.207031 1330.6875 L 655.296875 1393.15625 L 597.984375 2107.410156 L -180.519531 2044.941406 Z M -123.207031 1330.6875 " clip-rule="nonzero"/></clipPath><clipPath id="5088ad9d8e"><path d="M -107.519531 1331.945312 L 655.296875 1393.15625 L 627.898438 1734.59375 L -134.914062 1673.382812 Z M -107.519531 1331.945312 " clip-rule="nonzero"/></clipPath><clipPath id="cedda169dd"><path d="M -123.203125 1330.6875 L 655.300781 1393.15625 L 597.988281 2107.410156 L -180.519531 2044.941406 Z M -123.203125 1330.6875 " clip-rule="nonzero"/></clipPath><clipPath id="dd38473b5c"><path d="M 274 1495 L 548 1495 L 548 1683.09375 L 274 1683.09375 Z M 274 1495 " clip-rule="nonzero"/></clipPath><clipPath id="d8c2daa596"><path d="M -123.207031 1330.6875 L 655.296875 1393.15625 L 597.984375 2107.410156 L -180.519531 2044.941406 Z M -123.207031 1330.6875 " clip-rule="nonzero"/></clipPath><clipPath id="d0b5db07c9"><path d="M -107.519531 1331.945312 L 655.296875 1393.15625 L 627.898438 1734.59375 L -134.914062 1673.382812 Z M -107.519531 1331.945312 " clip-rule="nonzero"/></clipPath><clipPath id="2446edbf1c"><path d="M -123.203125 1330.6875 L 655.300781 1393.15625 L 597.988281 2107.410156 L -180.519531 2044.941406 Z M -123.203125 1330.6875 " clip-rule="nonzero"/></clipPath><clipPath id="71a784ac33"><path d="M 339 1514 L 466 1514 L 466 1625 L 339 1625 Z M 339 1514 " clip-rule="nonzero"/></clipPath><clipPath id="7f5c58c2b9"><path d="M -123.207031 1330.6875 L 655.296875 1393.15625 L 597.984375 2107.410156 L -180.519531 2044.941406 Z M -123.207031 1330.6875 " clip-rule="nonzero"/></clipPath><clipPath id="c27c2558b6"><path d="M -107.519531 1331.945312 L 655.296875 1393.15625 L 627.898438 1734.59375 L -134.914062 1673.382812 Z M -107.519531 1331.945312 " clip-rule="nonzero"/></clipPath><clipPath id="54fc18560e"><path d="M -123.203125 1330.6875 L 655.300781 1393.15625 L 597.988281 2107.410156 L -180.519531 2044.941406 Z M -123.203125 1330.6875 " clip-rule="nonzero"/></clipPath><clipPath id="03b5b46ae9"><path d="M 281 1485 L 464 1485 L 464 1577 L 281 1577 Z M 281 1485 " clip-rule="nonzero"/></clipPath><clipPath id="21bd961057"><path d="M -123.207031 1330.6875 L 655.296875 1393.15625 L 597.984375 2107.410156 L -180.519531 2044.941406 Z M -123.207031 1330.6875 " clip-rule="nonzero"/></clipPath><clipPath id="a175b99e87"><path d="M -107.519531 1331.945312 L 655.296875 1393.15625 L 627.898438 1734.59375 L -134.914062 1673.382812 Z M -107.519531 1331.945312 " clip-rule="nonzero"/></clipPath><clipPath id="1f339065ef"><path d="M -123.203125 1330.6875 L 655.300781 1393.15625 L 597.988281 2107.410156 L -180.519531 2044.941406 Z M -123.203125 1330.6875 " clip-rule="nonzero"/></clipPath><clipPath id="4fe178f7dd"><path d="M 0 1371 L 86 1371 L 86 1516 L 0 1516 Z M 0 1371 " clip-rule="nonzero"/></clipPath><clipPath id="c7ea582acf"><path d="M -123.207031 1330.6875 L 655.296875 1393.15625 L 597.984375 2107.410156 L -180.519531 2044.941406 Z M -123.207031 1330.6875 " clip-rule="nonzero"/></clipPath><clipPath id="342c685677"><path d="M -107.519531 1331.945312 L 655.296875 1393.15625 L 627.898438 1734.59375 L -134.914062 1673.382812 Z M -107.519531 1331.945312 " clip-rule="nonzero"/></clipPath><clipPath id="c07664b8fd"><path d="M -123.203125 1330.6875 L 655.300781 1393.15625 L 597.988281 2107.410156 L -180.519531 2044.941406 Z M -123.203125 1330.6875 " clip-rule="nonzero"/></clipPath><clipPath id="4b3d7d164b"><path d="M 0 1395 L 34 1395 L 34 1473 L 0 1473 Z M 0 1395 " clip-rule="nonzero"/></clipPath><clipPath id="a5b11556df"><path d="M -123.207031 1330.6875 L 655.296875 1393.15625 L 597.984375 2107.410156 L -180.519531 2044.941406 Z M -123.207031 1330.6875 " clip-rule="nonzero"/></clipPath><clipPath id="65115508ab"><path d="M -107.519531 1331.945312 L 655.296875 1393.15625 L 627.898438 1734.59375 L -134.914062 1673.382812 Z M -107.519531 1331.945312 " clip-rule="nonzero"/></clipPath><clipPath id="fbfede06fd"><path d="M -123.203125 1330.6875 L 655.300781 1393.15625 L 597.988281 2107.410156 L -180.519531 2044.941406 Z M -123.203125 1330.6875 " clip-rule="nonzero"/></clipPath><clipPath id="7196591e12"><path d="M 0 1382 L 86 1382 L 86 1516 L 0 1516 Z M 0 1382 " clip-rule="nonzero"/></clipPath><clipPath id="74a3e1786d"><path d="M -123.207031 1330.6875 L 655.296875 1393.15625 L 597.984375 2107.410156 L -180.519531 2044.941406 Z M -123.207031 1330.6875 " clip-rule="nonzero"/></clipPath><clipPath id="4c7c69a28b"><path d="M -107.519531 1331.945312 L 655.296875 1393.15625 L 627.898438 1734.59375 L -134.914062 1673.382812 Z M -107.519531 1331.945312 " clip-rule="nonzero"/></clipPath><clipPath id="d864c38c93"><path d="M -123.203125 1330.6875 L 655.300781 1393.15625 L 597.988281 2107.410156 L -180.519531 2044.941406 Z M -123.203125 1330.6875 " clip-rule="nonzero"/></clipPath><clipPath id="b048df250b"><path d="M 0 1395 L 31 1395 L 31 1470 L 0 1470 Z M 0 1395 " clip-rule="nonzero"/></clipPath><clipPath id="730b7cc21d"><path d="M -123.207031 1330.6875 L 655.296875 1393.15625 L 597.984375 2107.410156 L -180.519531 2044.941406 Z M -123.207031 1330.6875 " clip-rule="nonzero"/></clipPath><clipPath id="8218977d63"><path d="M -107.519531 1331.945312 L 655.296875 1393.15625 L 627.898438 1734.59375 L -134.914062 1673.382812 Z M -107.519531 1331.945312 " clip-rule="nonzero"/></clipPath><clipPath id="f255a2fdab"><path d="M -123.203125 1330.6875 L 655.300781 1393.15625 L 597.988281 2107.410156 L -180.519531 2044.941406 Z M -123.203125 1330.6875 " clip-rule="nonzero"/></clipPath><clipPath id="25c658776d"><path d="M 0 1375 L 30 1375 L 30 1438 L 0 1438 Z M 0 1375 " clip-rule="nonzero"/></clipPath><clipPath id="4718137e56"><path d="M -123.207031 1330.6875 L 655.296875 1393.15625 L 597.984375 2107.410156 L -180.519531 2044.941406 Z M -123.207031 1330.6875 " clip-rule="nonzero"/></clipPath><clipPath id="bd4c882cb1"><path d="M -107.519531 1331.945312 L 655.296875 1393.15625 L 627.898438 1734.59375 L -134.914062 1673.382812 Z M -107.519531 1331.945312 " clip-rule="nonzero"/></clipPath><clipPath id="be67eec33b"><path d="M -123.203125 1330.6875 L 655.300781 1393.15625 L 597.988281 2107.410156 L -180.519531 2044.941406 Z M -123.203125 1330.6875 " clip-rule="nonzero"/></clipPath><clipPath id="307e3e9f92"><path d="M 0 1599 L 198 1599 L 198 1683.09375 L 0 1683.09375 Z M 0 1599 " clip-rule="nonzero"/></clipPath><clipPath id="749018791f"><path d="M -123.207031 1330.6875 L 655.296875 1393.15625 L 597.984375 2107.410156 L -180.519531 2044.941406 Z M -123.207031 1330.6875 " clip-rule="nonzero"/></clipPath><clipPath id="31a5884c2c"><path d="M -107.519531 1331.945312 L 655.296875 1393.15625 L 627.898438 1734.59375 L -134.914062 1673.382812 Z M -107.519531 1331.945312 " clip-rule="nonzero"/></clipPath><clipPath id="c9e09b5f22"><path d="M -123.203125 1330.6875 L 655.300781 1393.15625 L 597.988281 2107.410156 L -180.519531 2044.941406 Z M -123.203125 1330.6875 " clip-rule="nonzero"/></clipPath><clipPath id="f61a262389"><path d="M 3 1636 L 133 1636 L 133 1683.09375 L 3 1683.09375 Z M 3 1636 " clip-rule="nonzero"/></clipPath><clipPath id="be728e6ee2"><path d="M -123.207031 1330.6875 L 655.296875 1393.15625 L 597.984375 2107.410156 L -180.519531 2044.941406 Z M -123.207031 1330.6875 " clip-rule="nonzero"/></clipPath><clipPath id="77d75873f8"><path d="M -107.519531 1331.945312 L 655.296875 1393.15625 L 627.898438 1734.59375 L -134.914062 1673.382812 Z M -107.519531 1331.945312 " clip-rule="nonzero"/></clipPath><clipPath id="81312be7ef"><path d="M -123.203125 1330.6875 L 655.300781 1393.15625 L 597.988281 2107.410156 L -180.519531 2044.941406 Z M -123.203125 1330.6875 " clip-rule="nonzero"/></clipPath><clipPath id="a37eae3633"><path d="M 0 1653 L 198 1653 L 198 1683.09375 L 0 1683.09375 Z M 0 1653 " clip-rule="nonzero"/></clipPath><clipPath id="696e6cb55f"><path d="M -123.207031 1330.6875 L 655.296875 1393.15625 L 597.984375 2107.410156 L -180.519531 2044.941406 Z M -123.207031 1330.6875 " clip-rule="nonzero"/></clipPath><clipPath id="d5d49bc84f"><path d="M -107.519531 1331.945312 L 655.296875 1393.15625 L 627.898438 1734.59375 L -134.914062 1673.382812 Z M -107.519531 1331.945312 " clip-rule="nonzero"/></clipPath><clipPath id="54c65d6810"><path d="M -123.203125 1330.6875 L 655.300781 1393.15625 L 597.988281 2107.410156 L -180.519531 2044.941406 Z M -123.203125 1330.6875 " clip-rule="nonzero"/></clipPath><clipPath id="5e66c608be"><path d="M 3 1636 L 133 1636 L 133 1683.09375 L 3 1683.09375 Z M 3 1636 " clip-rule="nonzero"/></clipPath><clipPath id="4860c6d800"><path d="M -123.207031 1330.6875 L 655.296875 1393.15625 L 597.984375 2107.410156 L -180.519531 2044.941406 Z M -123.207031 1330.6875 " clip-rule="nonzero"/></clipPath><clipPath id="6526a026cc"><path d="M -107.519531 1331.945312 L 655.296875 1393.15625 L 627.898438 1734.59375 L -134.914062 1673.382812 Z M -107.519531 1331.945312 " clip-rule="nonzero"/></clipPath><clipPath id="f99aabfba8"><path d="M -123.203125 1330.6875 L 655.300781 1393.15625 L 597.988281 2107.410156 L -180.519531 2044.941406 Z M -123.203125 1330.6875 " clip-rule="nonzero"/></clipPath><clipPath id="3eeefa2d31"><path d="M 0 1604 L 164 1604 L 164 1670 L 0 1670 Z M 0 1604 " clip-rule="nonzero"/></clipPath><clipPath id="03518d4190"><path d="M -123.207031 1330.6875 L 655.296875 1393.15625 L 597.984375 2107.410156 L -180.519531 2044.941406 Z M -123.207031 1330.6875 " clip-rule="nonzero"/></clipPath><clipPath id="a46c716b7d"><path d="M -107.519531 1331.945312 L 655.296875 1393.15625 L 627.898438 1734.59375 L -134.914062 1673.382812 Z M -107.519531 1331.945312 " clip-rule="nonzero"/></clipPath><clipPath id="2bf8eb451b"><path d="M -123.203125 1330.6875 L 655.300781 1393.15625 L 597.988281 2107.410156 L -180.519531 2044.941406 Z M -123.203125 1330.6875 " clip-rule="nonzero"/></clipPath></defs><g clip-path="url(#5aa04b630f)"><path fill="#ffffff" d="M 0 0.40625 L 1189.5 0.40625 L 1189.5 1683.09375 L 0 1683.09375 Z M 0 0.40625 " fill-opacity="1" fill-rule="nonzero"/><path fill="url(#c1ae1f6ff2)" d="M 0 0.40625 L 0 1683.09375 L 1189.5 1683.09375 L 1189.5 0.40625 Z M 0 0.40625 " fill-rule="nonzero"/></g><g clip-path="url(#f31b20401d)"><path fill="#b80000" d="M 1014.570312 250.832031 C 1014.570312 289.078125 983.570312 320.074219 945.328125 320.074219 C 907.089844 320.074219 876.085938 289.078125 876.085938 250.832031 C 876.085938 212.59375 945.269531 102.605469 945.328125 102.707031 C 945.464844 102.980469 1014.570312 212.59375 1014.570312 250.832031 " fill-opacity="1" fill-rule="nonzero"/></g><g clip-path="url(#16020aee86)"><path fill="#a60000" d="M 1005.882812 217.128906 C 1006.882812 221.53125 1007.449219 225.523438 1007.449219 228.921875 C 1007.449219 267.164062 976.445312 298.164062 938.207031 298.164062 C 911.46875 298.164062 888.3125 282.980469 876.777344 260.789062 C 881.617188 294.300781 910.371094 320.074219 945.21875 320.074219 C 983.460938 320.074219 1014.460938 289.078125 1014.460938 250.832031 C 1014.460938 242.417969 1011.109375 230.535156 1005.882812 217.128906 " fill-opacity="1" fill-rule="nonzero"/></g><path stroke-linecap="butt" transform="matrix(0.00000000130817, -0.749528, 0.749528, 0.00000000130817, 1061.826238, 316.00765)" fill="none" stroke-linejoin="miter" d="M -0.00021744 6.001087 L 284.689487 6.001086 " stroke="#000000" stroke-width="12" stroke-opacity="1" stroke-miterlimit="4"/><g fill="#000000" fill-opacity="1"><g transform="translate(249.811571, 599.506175)"><g><path d="M 2.828125 -29.015625 L 6.4375 -49.546875 L 16.203125 -49.546875 L 10.40625 -29.015625 Z M 2.828125 -29.015625 "/></g></g></g><g fill="#000000" fill-opacity="1"><g transform="translate(266.511802, 599.506175)"><g><path d="M 21.65625 -43.234375 C 26.375 -43.234375 30.375 -42.328125 33.65625 -40.515625 C 36.9375 -38.703125 39.425781 -36.175781 41.125 -32.9375 C 42.820312 -29.707031 43.671875 -25.921875 43.671875 -21.578125 C 43.671875 -17.097656 42.785156 -13.179688 41.015625 -9.828125 C 39.242188 -6.484375 36.625 -3.878906 33.15625 -2.015625 C 29.6875 -0.148438 25.40625 0.78125 20.3125 0.78125 C 17.664062 0.78125 15 0.554688 12.3125 0.109375 C 9.625 -0.335938 7.003906 -1.101562 4.453125 -2.1875 L 6.9375 -9.84375 C 9.007812 -9.039062 11.15625 -8.445312 13.375 -8.0625 C 15.59375 -7.6875 17.859375 -7.5 20.171875 -7.5 C 24.460938 -7.5 27.800781 -8.796875 30.1875 -11.390625 C 32.570312 -13.984375 33.765625 -17.378906 33.765625 -21.578125 C 33.765625 -25.492188 32.6875 -28.703125 30.53125 -31.203125 C 28.382812 -33.710938 25.425781 -34.96875 21.65625 -34.96875 C 18.726562 -34.96875 16.4375 -34.363281 14.78125 -33.15625 C 13.132812 -31.957031 12.3125 -30.316406 12.3125 -28.234375 C 12.3125 -26.253906 13.113281 -24.722656 14.71875 -23.640625 C 16.320312 -22.554688 18.515625 -22.109375 21.296875 -22.296875 L 21.015625 -14.65625 C 17.242188 -14.363281 13.960938 -14.785156 11.171875 -15.921875 C 8.390625 -17.054688 6.234375 -18.695312 4.703125 -20.84375 C 3.171875 -22.988281 2.40625 -25.453125 2.40625 -28.234375 C 2.40625 -31.585938 3.253906 -34.375 4.953125 -36.59375 C 6.648438 -38.8125 8.960938 -40.472656 11.890625 -41.578125 C 14.816406 -42.679688 18.070312 -43.234375 21.65625 -43.234375 Z M 21.65625 -43.234375 "/></g></g></g><g fill="#000000" fill-opacity="1"><g transform="translate(311.800596, 599.506175)"><g><path d="M 31 -43.09375 C 34.957031 -43.09375 38.398438 -42.171875 41.328125 -40.328125 C 44.253906 -38.492188 46.53125 -35.945312 48.15625 -32.6875 C 49.78125 -29.4375 50.59375 -25.6875 50.59375 -21.4375 C 50.59375 -15.5 49.460938 -10.703125 47.203125 -7.046875 C 44.941406 -3.390625 41.78125 -1.0625 37.71875 -0.0625 C 33.664062 0.925781 28.925781 0.40625 23.5 -1.625 L 25.6875 -9.703125 C 30.875 -7.523438 34.773438 -7.507812 37.390625 -9.65625 C 40.015625 -11.800781 41.328125 -15.726562 41.328125 -21.4375 C 41.328125 -25.5 40.382812 -28.671875 38.5 -30.953125 C 36.613281 -33.242188 34.253906 -34.390625 31.421875 -34.390625 C 28.546875 -34.390625 26.148438 -33.148438 24.234375 -30.671875 C 22.328125 -28.203125 20.691406 -24.441406 19.328125 -19.390625 L 14.078125 0 L 4.3125 0 L 9.765625 -19.53125 L 1.984375 -42.46875 L 11.671875 -42.46875 L 15.078125 -31.359375 C 16.628906 -34.984375 18.773438 -37.84375 21.515625 -39.9375 C 24.253906 -42.039062 27.414062 -43.09375 31 -43.09375 Z M 31 -43.09375 "/></g></g></g><g fill="#000000" fill-opacity="1"><g transform="translate(365.934883, 599.506175)"><g><path d="M 30.71875 -43.03125 C 33.875 -43.03125 36.675781 -42.296875 39.125 -40.828125 C 41.582031 -39.367188 43.519531 -37.140625 44.9375 -34.140625 C 46.351562 -31.148438 47.0625 -27.296875 47.0625 -22.578125 C 47.0625 -15.265625 45.207031 -9.554688 41.5 -5.453125 C 37.800781 -1.347656 32.507812 0.703125 25.625 0.703125 C 21.039062 0.703125 17.109375 -0.210938 13.828125 -2.046875 C 10.554688 -3.890625 8.035156 -6.554688 6.265625 -10.046875 C 4.492188 -13.535156 3.609375 -17.710938 3.609375 -22.578125 L 3.609375 -42.46875 L 13.515625 -42.46875 L 13.515625 -22.578125 C 13.515625 -17.898438 14.5625 -14.253906 16.65625 -11.640625 C 18.757812 -9.023438 21.75 -7.71875 25.625 -7.71875 C 29.539062 -7.71875 32.476562 -9.023438 34.4375 -11.640625 C 36.394531 -14.253906 37.375 -17.898438 37.375 -22.578125 C 37.375 -26.117188 36.734375 -29.007812 35.453125 -31.25 C 34.179688 -33.488281 32.203125 -34.609375 29.515625 -34.609375 C 28.046875 -34.609375 26.863281 -34.46875 25.96875 -34.1875 C 25.070312 -33.90625 24.082031 -33.503906 23 -32.984375 L 20.53125 -40.40625 C 21.894531 -41.164062 23.410156 -41.789062 25.078125 -42.28125 C 26.753906 -42.78125 28.632812 -43.03125 30.71875 -43.03125 Z M 30.71875 -43.03125 "/></g></g></g><g fill="#000000" fill-opacity="1"><g transform="translate(413.912671, 599.506175)"><g><path d="M 39.0625 -22.359375 L 39.0625 -8.421875 L 44.4375 -8.421875 L 44.4375 0 L 3.6875 0 L 3.6875 -8.421875 L 29.15625 -8.421875 L 29.15625 -21.65625 C 29.15625 -25.71875 28.234375 -28.9375 26.390625 -31.3125 C 24.554688 -33.695312 21.820312 -34.890625 18.1875 -34.890625 C 15.875 -34.890625 13.679688 -34.523438 11.609375 -33.796875 C 9.535156 -33.066406 7.597656 -32.203125 5.796875 -31.203125 L 2.546875 -38.578125 C 5.328125 -40.171875 8.164062 -41.359375 11.0625 -42.140625 C 13.96875 -42.921875 16.863281 -43.3125 19.75 -43.3125 C 26.539062 -43.3125 31.457031 -41.503906 34.5 -37.890625 C 37.539062 -34.285156 39.0625 -29.109375 39.0625 -22.359375 Z M 39.0625 -22.359375 "/></g></g></g><g fill="#000000" fill-opacity="1"><g transform="translate(460.121402, 599.506175)"><g/></g></g><g fill="#000000" fill-opacity="1"><g transform="translate(481.350525, 599.506175)"><g><path d="M 38 -21.9375 L 38 0 L 28.453125 0 L 28.453125 -21.515625 C 28.453125 -25.898438 27.425781 -29.238281 25.375 -31.53125 C 23.320312 -33.820312 20.429688 -34.96875 16.703125 -34.96875 C 14.441406 -34.96875 12.304688 -34.625 10.296875 -33.9375 C 8.296875 -33.25 6.394531 -32.4375 4.59375 -31.5 L 1.34375 -38.578125 C 4.3125 -40.222656 7.210938 -41.375 10.046875 -42.03125 C 12.878906 -42.695312 15.640625 -43.03125 18.328125 -43.03125 C 22.097656 -43.03125 25.46875 -42.296875 28.4375 -40.828125 C 31.414062 -39.367188 33.753906 -37.082031 35.453125 -33.96875 C 37.148438 -30.851562 38 -26.84375 38 -21.9375 Z M 38 -21.9375 "/></g></g></g><g fill="#000000" fill-opacity="1"><g transform="translate(523.101124, 599.506175)"><g><path d="M 31 -43.09375 C 34.957031 -43.09375 38.398438 -42.171875 41.328125 -40.328125 C 44.253906 -38.492188 46.53125 -35.945312 48.15625 -32.6875 C 49.78125 -29.4375 50.59375 -25.6875 50.59375 -21.4375 C 50.59375 -15.5 49.460938 -10.703125 47.203125 -7.046875 C 44.941406 -3.390625 41.78125 -1.0625 37.71875 -0.0625 C 33.664062 0.925781 28.925781 0.40625 23.5 -1.625 L 25.6875 -9.703125 C 30.875 -7.523438 34.773438 -7.507812 37.390625 -9.65625 C 40.015625 -11.800781 41.328125 -15.726562 41.328125 -21.4375 C 41.328125 -25.5 40.382812 -28.671875 38.5 -30.953125 C 36.613281 -33.242188 34.253906 -34.390625 31.421875 -34.390625 C 28.546875 -34.390625 26.148438 -33.148438 24.234375 -30.671875 C 22.328125 -28.203125 20.691406 -24.441406 19.328125 -19.390625 L 14.078125 0 L 4.3125 0 L 9.765625 -19.53125 L 1.984375 -42.46875 L 11.671875 -42.46875 L 15.078125 -31.359375 C 16.628906 -34.984375 18.773438 -37.84375 21.515625 -39.9375 C 24.253906 -42.039062 27.414062 -43.09375 31 -43.09375 Z M 31 -43.09375 "/></g></g></g><g fill="#000000" fill-opacity="1"><g transform="translate(577.235399, 599.506175)"><g><path d="M 44.578125 -23.78125 L 44.578125 -42.46875 L 54.5 -42.46875 L 54.5 -24.0625 C 54.5 -16.132812 52.269531 -9.988281 47.8125 -5.625 C 43.351562 -1.257812 37.085938 0.921875 29.015625 0.921875 C 20.992188 0.921875 14.753906 -1.257812 10.296875 -5.625 C 5.835938 -9.988281 3.609375 -16.132812 3.609375 -24.0625 L 3.609375 -42.46875 L 13.515625 -42.46875 L 13.515625 -23.78125 C 13.515625 -18.632812 14.882812 -14.644531 17.625 -11.8125 C 20.363281 -8.988281 24.160156 -7.578125 29.015625 -7.578125 C 33.921875 -7.578125 37.738281 -8.988281 40.46875 -11.8125 C 43.207031 -14.644531 44.578125 -18.632812 44.578125 -23.78125 Z M 24.0625 -42.46875 L 33.96875 -42.46875 L 33.96875 -18.6875 L 24.0625 -16.703125 Z M 24.0625 -42.46875 "/></g></g></g><g fill="#000000" fill-opacity="1"><g transform="translate(635.827794, 599.506175)"><g><path d="M 4.734375 -16.921875 L 4.734375 -42.46875 L 14.65625 -42.46875 L 14.65625 -18.46875 Z M 4.734375 -16.921875 "/></g></g></g><g fill="#000000" fill-opacity="1"><g transform="translate(654.792482, 599.506175)"><g><path d="M 4.953125 -34.046875 L 4.953125 -42.46875 L 22.640625 -42.46875 C 30.148438 -42.46875 35.660156 -40.6875 39.171875 -37.125 C 42.679688 -33.5625 44.4375 -27.910156 44.4375 -20.171875 L 44.4375 0 L 34.53125 0 L 34.53125 -20.171875 C 34.53125 -25.078125 33.597656 -28.613281 31.734375 -30.78125 C 29.878906 -32.957031 26.847656 -34.046875 22.640625 -34.046875 Z M 5.3125 0 L 5.3125 -22.21875 L 15.21875 -23.5625 L 15.21875 0 Z M 5.3125 0 "/></g></g></g><g fill="#000000" fill-opacity="1"><g transform="translate(700.859614, 599.506175)"><g><path d="M 12.734375 -49.546875 L 12.734375 -42.46875 L 39.703125 -42.46875 L 39.703125 -41.546875 L 24.34375 0 L 13.796875 0 L 13.796875 -0.359375 L 26.609375 -34.046875 L 2.828125 -34.046875 L 2.828125 -49.546875 Z M 12.734375 -49.546875 "/></g></g></g><g fill="#000000" fill-opacity="1"><g transform="translate(742.25647, 599.506175)"><g/></g></g><g fill="#000000" fill-opacity="1"><g transform="translate(763.48557, 599.506175)"><g><path d="M 2.6875 -34.046875 L 2.6875 -42.46875 L 15.640625 -42.46875 C 20.597656 -42.46875 24.5625 -41.734375 27.53125 -40.265625 C 30.5 -38.804688 32.644531 -36.484375 33.96875 -33.296875 C 35.289062 -30.109375 35.953125 -25.875 35.953125 -20.59375 L 35.953125 11.25 L 26.046875 11.25 L 26.046875 -20.59375 C 26.046875 -25.40625 25.179688 -28.847656 23.453125 -30.921875 C 21.734375 -33.003906 18.894531 -34.046875 14.9375 -34.046875 Z M 2.6875 -34.046875 "/></g></g></g><g fill="#000000" fill-opacity="1"><g transform="translate(802.75942, 599.506175)"><g><path d="M 4.734375 -16.921875 L 4.734375 -42.46875 L 14.65625 -42.46875 L 14.65625 -18.46875 Z M 4.734375 -16.921875 "/></g></g></g><g fill="#000000" fill-opacity="1"><g transform="translate(822.077965, 599.506175)"><g><path d="M 38 -21.9375 L 38 0 L 28.453125 0 L 28.453125 -21.515625 C 28.453125 -25.898438 27.425781 -29.238281 25.375 -31.53125 C 23.320312 -33.820312 20.429688 -34.96875 16.703125 -34.96875 C 14.441406 -34.96875 12.304688 -34.625 10.296875 -33.9375 C 8.296875 -33.25 6.394531 -32.4375 4.59375 -31.5 L 1.34375 -38.578125 C 4.3125 -40.222656 7.210938 -41.375 10.046875 -42.03125 C 12.878906 -42.695312 15.640625 -43.03125 18.328125 -43.03125 C 22.097656 -43.03125 25.46875 -42.296875 28.4375 -40.828125 C 31.414062 -39.367188 33.753906 -37.082031 35.453125 -33.96875 C 37.148438 -30.851562 38 -26.84375 38 -21.9375 Z M 38 -21.9375 "/></g></g></g><g fill="#000000" fill-opacity="1"><g transform="translate(863.050147, 599.506175)"><g><path d="M 30.296875 -16.625 L 41.546875 -0.78125 L 41.546875 0 L 4.03125 0 L 4.03125 -8.421875 L 25.265625 -8.421875 L 1.0625 -42.171875 L 1.0625 -42.46875 L 11.953125 -42.46875 L 25.484375 -23.421875 C 27.597656 -24.703125 29.148438 -26.835938 30.140625 -29.828125 C 31.140625 -32.828125 31.546875 -37.039062 31.359375 -42.46875 L 40.90625 -42.46875 C 41.144531 -35.25 40.390625 -29.585938 38.640625 -25.484375 C 36.890625 -21.378906 34.109375 -18.425781 30.296875 -16.625 Z M 30.296875 -16.625 "/></g></g></g><g fill="#000000" fill-opacity="1"><g transform="translate(907.985118, 599.506175)"><g/></g></g><g fill="#000000" fill-opacity="1"><g transform="translate(929.214217, 599.506175)"><g><path d="M 5.171875 -42.46875 L 25.625 -42.46875 C 32.789062 -42.46875 38.015625 -40.976562 41.296875 -38 C 44.578125 -35.03125 46.21875 -30.171875 46.21875 -23.421875 L 46.21875 0 L 5.171875 0 Z M 15.078125 -34.046875 L 15.078125 -8.421875 L 36.3125 -8.421875 L 36.3125 -22.578125 C 36.3125 -26.628906 35.4375 -29.550781 33.6875 -31.34375 C 31.9375 -33.144531 29.203125 -34.046875 25.484375 -34.046875 Z M 15.078125 -34.046875 "/></g></g></g><g fill="#000000" fill-opacity="1"><g transform="translate(977.050497, 599.506175)"><g><path d="M 2.6875 -34.046875 L 2.6875 -42.46875 L 42.328125 -42.46875 L 42.328125 -34.046875 C 39.160156 -34.046875 36.84375 -33.132812 35.375 -31.3125 C 33.914062 -29.5 33.1875 -26.773438 33.1875 -23.140625 L 33.1875 0 L 23.28125 0 L 23.28125 -22.78125 C 23.28125 -25.570312 23.691406 -27.875 24.515625 -29.6875 C 25.347656 -31.5 26.472656 -32.953125 27.890625 -34.046875 Z M 2.6875 -34.046875 "/></g></g></g><g fill="#000000" fill-opacity="1"><g transform="translate(1021.631657, 599.506175)"><g><path d="M 4.953125 -34.046875 L 4.953125 -42.46875 L 22.640625 -42.46875 C 30.148438 -42.46875 35.660156 -40.6875 39.171875 -37.125 C 42.679688 -33.5625 44.4375 -27.910156 44.4375 -20.171875 L 44.4375 0 L 34.53125 0 L 34.53125 -20.171875 C 34.53125 -25.078125 33.597656 -28.613281 31.734375 -30.78125 C 29.878906 -32.957031 26.847656 -34.046875 22.640625 -34.046875 Z M 5.3125 0 L 5.3125 -22.21875 L 15.21875 -23.5625 L 15.21875 0 Z M 5.3125 0 "/></g></g></g><g fill="#000000" fill-opacity="1"><g transform="translate(598.365364, 714.183909)"><g><path d="M 5.171875 -42.46875 L 27.59375 -42.46875 C 32.695312 -42.46875 36.828125 -41.769531 39.984375 -40.375 C 43.148438 -38.976562 45.460938 -36.75 46.921875 -33.6875 C 48.378906 -30.625 49.109375 -26.613281 49.109375 -21.65625 L 49.109375 0 L 39.203125 0 L 39.203125 -21.65625 C 39.203125 -25.851562 38.296875 -28.96875 36.484375 -31 C 34.671875 -33.03125 31.660156 -34.046875 27.453125 -34.046875 L 20.375 -34.046875 L 20.375 -10.46875 C 20.375 -6.695312 19.394531 -3.9375 17.4375 -2.1875 C 15.488281 -0.445312 13.070312 0.421875 10.1875 0.421875 C 8.769531 0.421875 7.175781 0.300781 5.40625 0.0625 C 3.644531 -0.164062 2.242188 -0.46875 1.203125 -0.84375 L 2.484375 -8.703125 C 3.085938 -8.515625 3.753906 -8.347656 4.484375 -8.203125 C 5.222656 -8.066406 6.0625 -8 7 -8 C 8.320312 -8 9.253906 -8.410156 9.796875 -9.234375 C 10.335938 -10.054688 10.609375 -11.4375 10.609375 -13.375 L 10.609375 -34.046875 L 5.171875 -34.046875 Z M 5.171875 -42.46875 "/></g></g></g><g fill="#000000" fill-opacity="1"><g transform="translate(652.145816, 714.183909)"><g><path d="M 5.171875 -42.46875 L 15.078125 -42.46875 L 15.078125 0 L 5.171875 0 Z M 5.171875 -42.46875 "/></g></g></g><g fill="#000000" fill-opacity="1"><g transform="translate(672.384253, 714.183909)"><g><path d="M 12.734375 -49.546875 L 12.734375 -42.46875 L 39.703125 -42.46875 L 39.703125 -41.546875 L 24.34375 0 L 13.796875 0 L 13.796875 -0.359375 L 26.609375 -34.046875 L 2.828125 -34.046875 L 2.828125 -49.546875 Z M 12.734375 -49.546875 "/></g></g></g><g fill="#000000" fill-opacity="1"><g transform="translate(713.781053, 714.183909)"><g><path d="M 32.265625 -27.8125 L 32.265625 -42.46875 L 42.171875 -42.46875 L 42.171875 -27.8125 C 42.171875 -23.238281 41.601562 -19.125 40.46875 -15.46875 C 39.34375 -11.8125 37.363281 -8.648438 34.53125 -5.984375 C 31.707031 -3.316406 27.804688 -1.21875 22.828125 0.3125 C 17.847656 1.851562 11.488281 2.785156 3.75 3.109375 L 3.046875 -5.03125 C 4.972656 -5.21875 6.773438 -5.414062 8.453125 -5.625 C 10.128906 -5.832031 11.695312 -6.035156 13.15625 -6.234375 L 3.390625 -42.46875 L 13.65625 -42.46875 L 22.578125 -8.703125 C 26.160156 -10.210938 28.671875 -12.414062 30.109375 -15.3125 C 31.546875 -18.21875 32.265625 -22.382812 32.265625 -27.8125 Z M 32.265625 -27.8125 "/></g></g></g><g fill="#000000" fill-opacity="1"><g transform="translate(759.565189, 714.183909)"><g><path d="M 31 -43.09375 C 34.957031 -43.09375 38.398438 -42.171875 41.328125 -40.328125 C 44.253906 -38.492188 46.53125 -35.945312 48.15625 -32.6875 C 49.78125 -29.4375 50.59375 -25.6875 50.59375 -21.4375 C 50.59375 -15.5 49.460938 -10.703125 47.203125 -7.046875 C 44.941406 -3.390625 41.78125 -1.0625 37.71875 -0.0625 C 33.664062 0.925781 28.925781 0.40625 23.5 -1.625 L 25.6875 -9.703125 C 30.875 -7.523438 34.773438 -7.507812 37.390625 -9.65625 C 40.015625 -11.800781 41.328125 -15.726562 41.328125 -21.4375 C 41.328125 -25.5 40.382812 -28.671875 38.5 -30.953125 C 36.613281 -33.242188 34.253906 -34.390625 31.421875 -34.390625 C 28.546875 -34.390625 26.148438 -33.148438 24.234375 -30.671875 C 22.328125 -28.203125 20.691406 -24.441406 19.328125 -19.390625 L 14.078125 0 L 4.3125 0 L 9.765625 -19.53125 L 1.984375 -42.46875 L 11.671875 -42.46875 L 15.078125 -31.359375 C 16.628906 -34.984375 18.773438 -37.84375 21.515625 -39.9375 C 24.253906 -42.039062 27.414062 -43.09375 31 -43.09375 Z M 31 -43.09375 "/></g></g></g><g fill="#000000" fill-opacity="1"><g transform="translate(813.274882, 714.183909)"><g/></g></g><g fill="#000000" fill-opacity="1"><g transform="translate(834.513427, 714.183909)"><g><path d="M 11.609375 -32.5625 L 1.90625 -34.046875 C 2.570312 -38.148438 3.800781 -41.378906 5.59375 -43.734375 C 7.382812 -46.097656 9.550781 -47.773438 12.09375 -48.765625 C 14.644531 -49.753906 17.382812 -50.25 20.3125 -50.25 C 25.5 -50.25 29.640625 -48.9375 32.734375 -46.3125 C 35.828125 -43.695312 37.375 -40.078125 37.375 -35.453125 C 37.375 -32.765625 36.472656 -29.828125 34.671875 -26.640625 C 32.878906 -23.460938 30.023438 -19.5625 26.109375 -14.9375 L 20.234375 -8.421875 L 38.140625 -8.421875 L 38.140625 0 L 2.1875 0 L 2.1875 -1.484375 L 16.203125 -17.90625 C 19.128906 -21.207031 21.394531 -23.921875 23 -26.046875 C 24.601562 -28.171875 25.722656 -29.972656 26.359375 -31.453125 C 26.992188 -32.941406 27.3125 -34.320312 27.3125 -35.59375 C 27.3125 -37.382812 26.707031 -38.832031 25.5 -39.9375 C 24.300781 -41.050781 22.523438 -41.609375 20.171875 -41.609375 C 18.046875 -41.609375 16.179688 -40.898438 14.578125 -39.484375 C 12.972656 -38.078125 11.984375 -35.769531 11.609375 -32.5625 Z M 11.609375 -32.5625 "/></g></g></g><g fill="#000000" fill-opacity="1"><g transform="translate(872.513517, 714.183909)"><g><path d="M 31 -17.125 L 4.453125 -17.125 L 4.453125 -25.34375 L 31 -25.34375 Z M 31 -17.125 "/></g></g></g><g fill="#000000" fill-opacity="1"><g transform="translate(908.673802, 714.183909)"><g><path d="M 23.5625 -32.265625 C 26.582031 -32.265625 29.269531 -31.582031 31.625 -30.21875 C 33.988281 -28.851562 35.84375 -26.976562 37.1875 -24.59375 C 38.53125 -22.207031 39.203125 -19.484375 39.203125 -16.421875 C 39.203125 -13.117188 38.398438 -10.171875 36.796875 -7.578125 C 35.191406 -4.984375 32.984375 -2.941406 30.171875 -1.453125 C 27.367188 0.0351562 24.15625 0.78125 20.53125 0.78125 C 16.9375 0.78125 13.722656 0.0507812 10.890625 -1.40625 C 8.066406 -2.875 5.851562 -4.867188 4.25 -7.390625 C 2.644531 -9.921875 1.84375 -12.742188 1.84375 -15.859375 C 1.84375 -18.640625 2.335938 -21.140625 3.328125 -23.359375 C 4.316406 -25.578125 5.800781 -28.125 7.78125 -31 L 20.8125 -49.546875 L 32.625 -49.546875 L 32.625 -49.046875 L 19.8125 -31.78125 C 20.851562 -32.101562 22.101562 -32.265625 23.5625 -32.265625 Z M 20.53125 -8.0625 C 23.03125 -8.0625 25.09375 -8.851562 26.71875 -10.4375 C 28.34375 -12.019531 29.15625 -14.015625 29.15625 -16.421875 C 29.15625 -18.828125 28.34375 -20.832031 26.71875 -22.4375 C 25.09375 -24.039062 23.03125 -24.84375 20.53125 -24.84375 C 18.019531 -24.84375 15.953125 -24.039062 14.328125 -22.4375 C 12.703125 -20.832031 11.890625 -18.828125 11.890625 -16.421875 C 11.890625 -14.015625 12.703125 -12.019531 14.328125 -10.4375 C 15.953125 -8.851562 18.019531 -8.0625 20.53125 -8.0625 Z M 20.53125 -8.0625 "/></g></g></g><g fill="#000000" fill-opacity="1"><g transform="translate(949.94069, 714.183909)"><g/></g></g><g fill="#000000" fill-opacity="1"><g transform="translate(971.169812, 714.183909)"><g><path d="M 12.734375 -49.546875 L 12.734375 -42.46875 L 39.703125 -42.46875 L 39.703125 -41.546875 L 24.34375 0 L 13.796875 0 L 13.796875 -0.359375 L 26.609375 -34.046875 L 2.828125 -34.046875 L 2.828125 -49.546875 Z M 12.734375 -49.546875 "/></g></g></g><g fill="#000000" fill-opacity="1"><g transform="translate(1012.708143, 714.183909)"><g><path d="M 44.578125 -23.78125 L 44.578125 -42.46875 L 54.5 -42.46875 L 54.5 -24.0625 C 54.5 -16.132812 52.269531 -9.988281 47.8125 -5.625 C 43.351562 -1.257812 37.085938 0.921875 29.015625 0.921875 C 20.992188 0.921875 14.753906 -1.257812 10.296875 -5.625 C 5.835938 -9.988281 3.609375 -16.132812 3.609375 -24.0625 L 3.609375 -42.46875 L 13.515625 -42.46875 L 13.515625 -23.78125 C 13.515625 -18.632812 14.882812 -14.644531 17.625 -11.8125 C 20.363281 -8.988281 24.160156 -7.578125 29.015625 -7.578125 C 33.921875 -7.578125 37.738281 -8.988281 40.46875 -11.8125 C 43.207031 -14.644531 44.578125 -18.632812 44.578125 -23.78125 Z M 24.0625 -42.46875 L 33.96875 -42.46875 L 33.96875 -18.6875 L 24.0625 -16.703125 Z M 24.0625 -42.46875 "/></g></g></g><g fill="#000000" fill-opacity="1"><g transform="translate(188.789334, 1015.135437)"><g/></g></g><g fill="#000000" fill-opacity="1"><g transform="translate(206.918535, 1015.135437)"><g><path d="M 1.328125 8.21875 L 4.765625 -8.515625 L 10.390625 -8.515625 L 5.625 8.21875 Z M 1.328125 8.21875 "/></g></g></g><g fill="#000000" fill-opacity="1"><g transform="translate(220.449856, 1015.135437)"><g><path d="M 4.953125 -36.25 L 22.171875 -36.25 C 28.128906 -36.25 32.445312 -34.9375 35.125 -32.3125 C 37.800781 -29.695312 39.140625 -25.570312 39.140625 -19.9375 L 39.140625 0 L 4.953125 0 Z M 10.625 -31.40625 L 10.625 -4.828125 L 33.46875 -4.828125 L 33.46875 -19.515625 C 33.46875 -23.578125 32.5625 -26.570312 30.75 -28.5 C 28.9375 -30.4375 26.054688 -31.40625 22.109375 -31.40625 Z M 10.625 -31.40625 "/></g></g></g><g fill="#000000" fill-opacity="1"><g transform="translate(261.527017, 1015.135437)"><g><path d="M 2.53125 -31.40625 L 2.53125 -36.25 L 36.546875 -36.25 L 36.546875 -31.40625 C 30.910156 -31.40625 28.09375 -28.082031 28.09375 -21.4375 L 28.09375 0 L 22.40625 0 L 22.40625 -21.265625 C 22.40625 -23.921875 22.816406 -26.050781 23.640625 -27.65625 C 24.472656 -29.269531 25.570312 -30.519531 26.9375 -31.40625 Z M 2.53125 -31.40625 "/></g></g></g><g fill="#000000" fill-opacity="1"><g transform="translate(300.00669, 1015.135437)"><g><path d="M 4.71875 -31.40625 L 4.71875 -36.25 L 20.296875 -36.25 C 26.210938 -36.25 30.570312 -34.785156 33.375 -31.859375 C 36.175781 -28.941406 37.578125 -24.363281 37.578125 -18.125 L 37.578125 0 L 31.890625 0 L 31.890625 -18.125 C 31.890625 -22.75 30.960938 -26.117188 29.109375 -28.234375 C 27.265625 -30.347656 24.328125 -31.40625 20.296875 -31.40625 Z M 5.140625 0 L 5.140625 -19.328125 L 10.8125 -20.109375 L 10.8125 0 Z M 5.140625 0 "/></g></g></g><g fill="#000000" fill-opacity="1"><g transform="translate(342.171236, 1015.135437)"><g/></g></g><g fill="#000000" fill-opacity="1"><g transform="translate(360.293529, 1015.135437)"><g><path d="M 4.34375 -36.25 L 24.15625 -36.25 C 30.125 -36.25 34.445312 -34.878906 37.125 -32.140625 C 39.800781 -29.398438 41.140625 -24.96875 41.140625 -18.84375 L 41.140625 0 L 35.453125 0 L 35.453125 -18.84375 C 35.453125 -23.15625 34.546875 -26.328125 32.734375 -28.359375 C 30.921875 -30.390625 28.023438 -31.40625 24.046875 -31.40625 L 15.15625 -31.40625 L 15.15625 -8.21875 C 15.15625 -5.28125 14.441406 -3.113281 13.015625 -1.71875 C 11.585938 -0.332031 9.726562 0.359375 7.4375 0.359375 C 6.382812 0.359375 5.210938 0.257812 3.921875 0.0625 C 2.640625 -0.132812 1.570312 -0.378906 0.71875 -0.671875 L 1.515625 -5.140625 C 2.117188 -4.929688 2.75 -4.765625 3.40625 -4.640625 C 4.070312 -4.523438 4.828125 -4.46875 5.671875 -4.46875 C 7.085938 -4.46875 8.085938 -4.890625 8.671875 -5.734375 C 9.253906 -6.578125 9.546875 -7.925781 9.546875 -9.78125 L 9.546875 -31.40625 L 4.34375 -31.40625 Z M 4.34375 -36.25 "/></g></g></g><g fill="#000000" fill-opacity="1"><g transform="translate(405.176429, 1015.135437)"><g><path d="M 29.0625 -12.140625 L 38.59375 -0.234375 L 38.59375 0 L 32.265625 0 L 15.890625 -20.421875 C 14.316406 -19.535156 12.992188 -18.273438 11.921875 -16.640625 C 10.859375 -15.015625 10.09375 -12.859375 9.625 -10.171875 C 9.164062 -7.492188 8.976562 -4.101562 9.0625 0 L 3.390625 0 C 3.304688 -4.832031 3.601562 -8.828125 4.28125 -11.984375 C 4.96875 -15.148438 6.035156 -17.6875 7.484375 -19.59375 C 8.941406 -21.507812 10.734375 -23.015625 12.859375 -24.109375 L 3.328125 -36 L 3.328125 -36.25 L 9.671875 -36.25 L 26.03125 -15.890625 C 27.644531 -16.773438 28.960938 -18.03125 29.984375 -19.65625 C 31.015625 -21.289062 31.769531 -23.445312 32.25 -26.125 C 32.738281 -28.800781 32.941406 -32.175781 32.859375 -36.25 L 38.546875 -36.25 C 38.660156 -31.457031 38.363281 -27.46875 37.65625 -24.28125 C 36.957031 -21.101562 35.890625 -18.554688 34.453125 -16.640625 C 33.023438 -14.722656 31.226562 -13.222656 29.0625 -12.140625 Z M 29.0625 -12.140625 "/></g></g></g><g fill="#000000" fill-opacity="1"><g transform="translate(447.401361, 1015.135437)"><g/></g></g><g fill="#000000" fill-opacity="1"><g transform="translate(465.523654, 1015.135437)"><g><path d="M 4.953125 -36.25 L 22.171875 -36.25 C 28.128906 -36.25 32.445312 -34.9375 35.125 -32.3125 C 37.800781 -29.695312 39.140625 -25.570312 39.140625 -19.9375 L 39.140625 0 L 4.953125 0 Z M 10.625 -31.40625 L 10.625 -4.828125 L 33.46875 -4.828125 L 33.46875 -19.515625 C 33.46875 -23.578125 32.5625 -26.570312 30.75 -28.5 C 28.9375 -30.4375 26.054688 -31.40625 22.109375 -31.40625 Z M 10.625 -31.40625 "/></g></g></g><g fill="#000000" fill-opacity="1"><g transform="translate(508.171431, 1015.135437)"><g><path d="M 4.53125 -14.796875 L 4.53125 -36.25 L 10.203125 -36.25 L 10.203125 -15.765625 Z M 4.53125 -14.796875 "/></g></g></g><g fill="#000000" fill-opacity="1"><g transform="translate(522.608874, 1015.135437)"><g><path d="M 4.71875 -31.40625 L 4.71875 -36.25 L 38 -36.25 L 38 -15.28125 C 38 -11.375 37.460938 -8.269531 36.390625 -5.96875 C 35.328125 -3.675781 33.835938 -2.035156 31.921875 -1.046875 C 30.015625 -0.0664062 27.789062 0.421875 25.25 0.421875 C 22.59375 0.421875 20.15625 0.078125 17.9375 -0.609375 L 18.609375 -5.3125 C 19.535156 -5.03125 20.519531 -4.804688 21.5625 -4.640625 C 22.613281 -4.484375 23.601562 -4.40625 24.53125 -4.40625 C 27.269531 -4.40625 29.28125 -5.238281 30.5625 -6.90625 C 31.851562 -8.582031 32.5 -11.554688 32.5 -15.828125 L 32.5 -31.40625 Z M 5.140625 -20.234375 L 10.625 -20.96875 L 10.625 10.515625 L 5.140625 10.515625 Z M 5.140625 -20.234375 "/></g></g></g><g fill="#000000" fill-opacity="1"><g transform="translate(565.377493, 1015.135437)"><g><path d="M 4.53125 -14.796875 L 4.53125 -36.25 L 10.203125 -36.25 L 10.203125 -15.765625 Z M 4.53125 -14.796875 "/></g></g></g><g fill="#000000" fill-opacity="1"><g transform="translate(580.116938, 1015.135437)"><g><path d="M 24.046875 -36.25 L 24.046875 -31.40625 C 21.140625 -31.40625 18.78125 -30.863281 16.96875 -29.78125 C 15.15625 -28.695312 13.945312 -26.9375 13.34375 -24.5 C 12.738281 -22.0625 12.789062 -18.835938 13.5 -14.828125 C 14.207031 -10.816406 15.609375 -5.875 17.703125 0 L 11.71875 0 C 8.65625 -8.695312 7.273438 -15.734375 7.578125 -21.109375 C 7.878906 -26.484375 10.207031 -29.914062 14.5625 -31.40625 L 2.78125 -31.40625 L 2.78125 -36.25 Z M 24.046875 -36.25 "/></g></g></g><g fill="#000000" fill-opacity="1"><g transform="translate(606.15264, 1015.135437)"><g><path d="M 4.953125 -36.25 L 21.5625 -36.25 C 27.363281 -36.25 31.648438 -34.859375 34.421875 -32.078125 C 37.203125 -29.296875 38.59375 -24.925781 38.59375 -18.96875 L 38.59375 0 L 32.921875 0 L 32.921875 -18.96875 C 32.921875 -23.15625 32.003906 -26.273438 30.171875 -28.328125 C 28.335938 -30.378906 25.46875 -31.40625 21.5625 -31.40625 L 10.625 -31.40625 L 10.625 0 L 4.953125 0 Z M 4.953125 -36.25 "/></g></g></g><g fill="#000000" fill-opacity="1"><g transform="translate(648.498392, 1015.135437)"><g><path d="M 26.34375 -36.78125 C 29.601562 -36.78125 32.441406 -35.992188 34.859375 -34.421875 C 37.273438 -32.859375 39.15625 -30.6875 40.5 -27.90625 C 41.851562 -25.125 42.53125 -21.921875 42.53125 -18.296875 C 42.53125 -13.265625 41.582031 -9.175781 39.6875 -6.03125 C 37.789062 -2.894531 35.109375 -0.90625 31.640625 -0.0625 C 28.179688 0.78125 24.117188 0.335938 19.453125 -1.390625 L 20.71875 -5.984375 C 26.070312 -3.890625 30.148438 -3.988281 32.953125 -6.28125 C 35.753906 -8.570312 37.15625 -12.578125 37.15625 -18.296875 C 37.15625 -21.035156 36.703125 -23.410156 35.796875 -25.421875 C 34.890625 -27.441406 33.640625 -29.003906 32.046875 -30.109375 C 30.453125 -31.222656 28.628906 -31.78125 26.578125 -31.78125 C 24.359375 -31.78125 22.460938 -31.125 20.890625 -29.8125 C 19.328125 -28.5 18.019531 -26.734375 16.96875 -24.515625 C 15.925781 -22.304688 15.039062 -19.875 14.3125 -17.21875 L 9.671875 0 L 4.046875 0 L 8.703125 -16.96875 L 2.171875 -36.25 L 7.796875 -36.25 L 11.71875 -23.984375 C 12.519531 -26.359375 13.59375 -28.507812 14.9375 -30.4375 C 16.289062 -32.375 17.914062 -33.914062 19.8125 -35.0625 C 21.707031 -36.207031 23.882812 -36.78125 26.34375 -36.78125 Z M 26.34375 -36.78125 "/></g></g></g><g fill="#000000" fill-opacity="1"><g transform="translate(694.106172, 1015.135437)"><g/></g></g><g fill="#000000" fill-opacity="1"><g transform="translate(712.228465, 1015.135437)"><g><path d="M 4.953125 -36.25 L 10.625 -36.25 L 10.625 0 L 4.953125 0 Z M 4.953125 -36.25 "/></g></g></g><g fill="#000000" fill-opacity="1"><g transform="translate(727.874032, 1015.135437)"><g><path d="M 19.09375 0 L 3.203125 0 L 3.203125 -4.828125 L 13.40625 -4.828125 L 13.40625 -23.984375 C 13.40625 -26.484375 12.992188 -28.34375 12.171875 -29.5625 C 11.347656 -30.789062 9.925781 -31.40625 7.90625 -31.40625 L 4.53125 -31.40625 L 4.53125 -36.25 L 9.546875 -36.25 C 12.929688 -36.25 15.367188 -35.34375 16.859375 -33.53125 C 18.347656 -31.71875 19.09375 -29.019531 19.09375 -25.4375 Z M 19.09375 0 "/></g></g></g><g fill="#000000" fill-opacity="1"><g transform="translate(751.553873, 1015.135437)"><g><path d="M 4.953125 -36.25 L 21.5625 -36.25 C 27.363281 -36.25 31.648438 -34.859375 34.421875 -32.078125 C 37.203125 -29.296875 38.59375 -24.925781 38.59375 -18.96875 L 38.59375 0 L 32.921875 0 L 32.921875 -18.96875 C 32.921875 -23.15625 32.003906 -26.273438 30.171875 -28.328125 C 28.335938 -30.378906 25.46875 -31.40625 21.5625 -31.40625 L 10.625 -31.40625 L 10.625 0 L 4.953125 0 Z M 4.953125 -36.25 "/></g></g></g><g fill="#000000" fill-opacity="1"><g transform="translate(794.382856, 1015.135437)"><g><path d="M 19.09375 0 L 3.203125 0 L 3.203125 -4.828125 L 13.40625 -4.828125 L 13.40625 -23.984375 C 13.40625 -26.484375 12.992188 -28.34375 12.171875 -29.5625 C 11.347656 -30.789062 9.925781 -31.40625 7.90625 -31.40625 L 4.53125 -31.40625 L 4.53125 -36.25 L 9.546875 -36.25 C 12.929688 -36.25 15.367188 -35.34375 16.859375 -33.53125 C 18.347656 -31.71875 19.09375 -29.019531 19.09375 -25.4375 Z M 19.09375 0 "/></g></g></g><g fill="#000000" fill-opacity="1"><g transform="translate(817.337781, 1015.135437)"><g><path d="M 29.0625 -12.140625 L 38.59375 -0.234375 L 38.59375 0 L 32.265625 0 L 15.890625 -20.421875 C 14.316406 -19.535156 12.992188 -18.273438 11.921875 -16.640625 C 10.859375 -15.015625 10.09375 -12.859375 9.625 -10.171875 C 9.164062 -7.492188 8.976562 -4.101562 9.0625 0 L 3.390625 0 C 3.304688 -4.832031 3.601562 -8.828125 4.28125 -11.984375 C 4.96875 -15.148438 6.035156 -17.6875 7.484375 -19.59375 C 8.941406 -21.507812 10.734375 -23.015625 12.859375 -24.109375 L 3.328125 -36 L 3.328125 -36.25 L 9.671875 -36.25 L 26.03125 -15.890625 C 27.644531 -16.773438 28.960938 -18.03125 29.984375 -19.65625 C 31.015625 -21.289062 31.769531 -23.445312 32.25 -26.125 C 32.738281 -28.800781 32.941406 -32.175781 32.859375 -36.25 L 38.546875 -36.25 C 38.660156 -31.457031 38.363281 -27.46875 37.65625 -24.28125 C 36.957031 -21.101562 35.890625 -18.554688 34.453125 -16.640625 C 33.023438 -14.722656 31.226562 -13.222656 29.0625 -12.140625 Z M 29.0625 -12.140625 "/></g></g></g><g fill="#000000" fill-opacity="1"><g transform="translate(859.743965, 1015.135437)"><g><path d="M 39.5 -19.6875 L 39.5 -36.25 L 45.1875 -36.25 L 45.1875 -19.8125 C 45.1875 -15.582031 44.347656 -11.9375 42.671875 -8.875 C 41.003906 -5.8125 38.628906 -3.445312 35.546875 -1.78125 C 32.460938 -0.113281 28.789062 0.71875 24.53125 0.71875 C 20.257812 0.71875 16.582031 -0.113281 13.5 -1.78125 C 10.414062 -3.445312 8.035156 -5.8125 6.359375 -8.875 C 4.691406 -11.9375 3.859375 -15.582031 3.859375 -19.8125 L 3.859375 -36.25 L 9.546875 -36.25 L 9.546875 -19.6875 C 9.546875 -16.507812 10.160156 -13.75 11.390625 -11.40625 C 12.617188 -9.070312 14.347656 -7.269531 16.578125 -6 C 18.816406 -4.738281 21.46875 -4.109375 24.53125 -4.109375 C 27.582031 -4.109375 30.226562 -4.738281 32.46875 -6 C 34.707031 -7.269531 36.4375 -9.070312 37.65625 -11.40625 C 38.882812 -13.75 39.5 -16.507812 39.5 -19.6875 Z M 21.6875 -36.25 L 27.359375 -36.25 L 27.359375 -15.46875 L 21.6875 -14.25 Z M 21.6875 -36.25 "/></g></g></g><g fill="#000000" fill-opacity="1"><g transform="translate(908.855412, 1015.135437)"><g/></g></g><g fill="#000000" fill-opacity="1"><g transform="translate(926.977659, 1015.135437)"><g><path d="M 2.53125 -31.40625 L 2.53125 -36.25 L 36.546875 -36.25 L 36.546875 -31.40625 C 30.910156 -31.40625 28.09375 -28.082031 28.09375 -21.4375 L 28.09375 0 L 22.40625 0 L 22.40625 -21.265625 C 22.40625 -23.921875 22.816406 -26.050781 23.640625 -27.65625 C 24.472656 -29.269531 25.570312 -30.519531 26.9375 -31.40625 Z M 2.53125 -31.40625 "/></g></g></g><g fill="#000000" fill-opacity="1"><g transform="translate(966.001042, 1015.135437)"><g><path d="M 4.53125 -14.796875 L 4.53125 -36.25 L 10.203125 -36.25 L 10.203125 -15.765625 Z M 4.53125 -14.796875 "/></g></g></g><g fill="#000000" fill-opacity="1"><g transform="translate(980.740533, 1015.135437)"><g><path d="M 26.34375 -36.78125 C 29.601562 -36.78125 32.441406 -35.992188 34.859375 -34.421875 C 37.273438 -32.859375 39.15625 -30.6875 40.5 -27.90625 C 41.851562 -25.125 42.53125 -21.921875 42.53125 -18.296875 C 42.53125 -13.265625 41.582031 -9.175781 39.6875 -6.03125 C 37.789062 -2.894531 35.109375 -0.90625 31.640625 -0.0625 C 28.179688 0.78125 24.117188 0.335938 19.453125 -1.390625 L 20.71875 -5.984375 C 26.070312 -3.890625 30.148438 -3.988281 32.953125 -6.28125 C 35.753906 -8.570312 37.15625 -12.578125 37.15625 -18.296875 C 37.15625 -21.035156 36.703125 -23.410156 35.796875 -25.421875 C 34.890625 -27.441406 33.640625 -29.003906 32.046875 -30.109375 C 30.453125 -31.222656 28.628906 -31.78125 26.578125 -31.78125 C 24.359375 -31.78125 22.460938 -31.125 20.890625 -29.8125 C 19.328125 -28.5 18.019531 -26.734375 16.96875 -24.515625 C 15.925781 -22.304688 15.039062 -19.875 14.3125 -17.21875 L 9.671875 0 L 4.046875 0 L 8.703125 -16.96875 L 2.171875 -36.25 L 7.796875 -36.25 L 11.71875 -23.984375 C 12.519531 -26.359375 13.59375 -28.507812 14.9375 -30.4375 C 16.289062 -32.375 17.914062 -33.914062 19.8125 -35.0625 C 21.707031 -36.207031 23.882812 -36.78125 26.34375 -36.78125 Z M 26.34375 -36.78125 "/></g></g></g><g fill="#000000" fill-opacity="1"><g transform="translate(1025.140074, 1015.135437)"><g><path d="M 4.34375 -36.25 L 24.15625 -36.25 C 30.125 -36.25 34.445312 -34.878906 37.125 -32.140625 C 39.800781 -29.398438 41.140625 -24.96875 41.140625 -18.84375 L 41.140625 0 L 35.453125 0 L 35.453125 -18.84375 C 35.453125 -23.15625 34.546875 -26.328125 32.734375 -28.359375 C 30.921875 -30.390625 28.023438 -31.40625 24.046875 -31.40625 L 15.15625 -31.40625 L 15.15625 -8.21875 C 15.15625 -5.28125 14.441406 -3.113281 13.015625 -1.71875 C 11.585938 -0.332031 9.726562 0.359375 7.4375 0.359375 C 6.382812 0.359375 5.210938 0.257812 3.921875 0.0625 C 2.640625 -0.132812 1.570312 -0.378906 0.71875 -0.671875 L 1.515625 -5.140625 C 2.117188 -4.929688 2.75 -4.765625 3.40625 -4.640625 C 4.070312 -4.523438 4.828125 -4.46875 5.671875 -4.46875 C 7.085938 -4.46875 8.085938 -4.890625 8.671875 -5.734375 C 9.253906 -6.578125 9.546875 -7.925781 9.546875 -9.78125 L 9.546875 -31.40625 L 4.34375 -31.40625 Z M 4.34375 -36.25 "/></g></g></g><g fill="#000000" fill-opacity="1"><g transform="translate(322.603447, 1112.574035)"><g><path d="M 26.828125 -15.765625 L 4.171875 -15.765625 L 4.171875 -20.484375 L 26.828125 -20.484375 Z M 26.828125 -15.765625 "/></g></g></g><g fill="#000000" fill-opacity="1"><g transform="translate(353.532168, 1112.574035)"><g><path d="M 4.953125 -36.25 L 22.171875 -36.25 C 28.128906 -36.25 32.445312 -34.9375 35.125 -32.3125 C 37.800781 -29.695312 39.140625 -25.570312 39.140625 -19.9375 L 39.140625 0 L 4.953125 0 Z M 10.625 -31.40625 L 10.625 -4.828125 L 33.46875 -4.828125 L 33.46875 -19.515625 C 33.46875 -23.578125 32.5625 -26.570312 30.75 -28.5 C 28.9375 -30.4375 26.054688 -31.40625 22.109375 -31.40625 Z M 10.625 -31.40625 "/></g></g></g><g fill="#000000" fill-opacity="1"><g transform="translate(397.267319, 1112.574035)"><g><path d="M 4.953125 -36.25 L 10.625 -36.25 L 10.625 0 L 4.953125 0 Z M 4.953125 -36.25 "/></g></g></g><g fill="#000000" fill-opacity="1"><g transform="translate(412.912897, 1112.574035)"><g><path d="M 4.953125 -36.25 L 21.5625 -36.25 C 27.363281 -36.25 31.648438 -34.859375 34.421875 -32.078125 C 37.203125 -29.296875 38.59375 -24.925781 38.59375 -18.96875 L 38.59375 0 L 32.921875 0 L 32.921875 -18.96875 C 32.921875 -23.15625 32.003906 -26.273438 30.171875 -28.328125 C 28.335938 -30.378906 25.46875 -31.40625 21.5625 -31.40625 L 10.625 -31.40625 L 10.625 0 L 4.953125 0 Z M 4.953125 -36.25 "/></g></g></g><g fill="#000000" fill-opacity="1"><g transform="translate(453.446384, 1112.574035)"><g><path d="M 2.53125 -31.40625 L 2.53125 -36.25 L 36.546875 -36.25 L 36.546875 -31.40625 C 30.910156 -31.40625 28.09375 -28.082031 28.09375 -21.4375 L 28.09375 0 L 22.40625 0 L 22.40625 -21.265625 C 22.40625 -23.921875 22.816406 -26.050781 23.640625 -27.65625 C 24.472656 -29.269531 25.570312 -30.519531 26.9375 -31.40625 Z M 2.53125 -31.40625 "/></g></g></g><g fill="#000000" fill-opacity="1"><g transform="translate(492.650961, 1112.574035)"><g><path d="M 26.34375 -36.78125 C 29.601562 -36.78125 32.441406 -35.992188 34.859375 -34.421875 C 37.273438 -32.859375 39.15625 -30.6875 40.5 -27.90625 C 41.851562 -25.125 42.53125 -21.921875 42.53125 -18.296875 C 42.53125 -13.265625 41.582031 -9.175781 39.6875 -6.03125 C 37.789062 -2.894531 35.109375 -0.90625 31.640625 -0.0625 C 28.179688 0.78125 24.117188 0.335938 19.453125 -1.390625 L 20.71875 -5.984375 C 26.070312 -3.890625 30.148438 -3.988281 32.953125 -6.28125 C 35.753906 -8.570312 37.15625 -12.578125 37.15625 -18.296875 C 37.15625 -21.035156 36.703125 -23.410156 35.796875 -25.421875 C 34.890625 -27.441406 33.640625 -29.003906 32.046875 -30.109375 C 30.453125 -31.222656 28.628906 -31.78125 26.578125 -31.78125 C 24.359375 -31.78125 22.460938 -31.125 20.890625 -29.8125 C 19.328125 -28.5 18.019531 -26.734375 16.96875 -24.515625 C 15.925781 -22.304688 15.039062 -19.875 14.3125 -17.21875 L 9.671875 0 L 4.046875 0 L 8.703125 -16.96875 L 2.171875 -36.25 L 7.796875 -36.25 L 11.71875 -23.984375 C 12.519531 -26.359375 13.59375 -28.507812 14.9375 -30.4375 C 16.289062 -32.375 17.914062 -33.914062 19.8125 -35.0625 C 21.707031 -36.207031 23.882812 -36.78125 26.34375 -36.78125 Z M 26.34375 -36.78125 "/></g></g></g><g fill="#000000" fill-opacity="1"><g transform="translate(536.688113, 1112.574035)"><g><path d="M 8.34375 -42.28125 L 8.34375 -36.25 L 33.28125 -36.25 L 33.28125 -35.640625 L 19.390625 0 L 13.40625 0 L 13.40625 -0.234375 L 25.796875 -31.40625 L 2.65625 -31.40625 L 2.65625 -42.28125 Z M 8.34375 -42.28125 "/></g></g></g><g fill="#000000" fill-opacity="1"><g transform="translate(571.784962, 1112.574035)"><g/></g></g><g fill="#000000" fill-opacity="1"><g transform="translate(589.907255, 1112.574035)"><g><path d="M 2.53125 -31.40625 L 2.53125 -36.25 L 36.546875 -36.25 L 36.546875 -31.40625 C 30.910156 -31.40625 28.09375 -28.082031 28.09375 -21.4375 L 28.09375 0 L 22.40625 0 L 22.40625 -21.265625 C 22.40625 -23.921875 22.816406 -26.050781 23.640625 -27.65625 C 24.472656 -29.269531 25.570312 -30.519531 26.9375 -31.40625 Z M 2.53125 -31.40625 "/></g></g></g><g fill="#000000" fill-opacity="1"><g transform="translate(628.930614, 1112.574035)"><g><path d="M 4.953125 -36.25 L 10.625 -36.25 L 10.625 0 L 4.953125 0 Z M 4.953125 -36.25 "/></g></g></g><g fill="#000000" fill-opacity="1"><g transform="translate(644.576181, 1112.574035)"><g><path d="M 26.34375 -36.78125 C 29.601562 -36.78125 32.441406 -35.992188 34.859375 -34.421875 C 37.273438 -32.859375 39.15625 -30.6875 40.5 -27.90625 C 41.851562 -25.125 42.53125 -21.921875 42.53125 -18.296875 C 42.53125 -13.265625 41.582031 -9.175781 39.6875 -6.03125 C 37.789062 -2.894531 35.109375 -0.90625 31.640625 -0.0625 C 28.179688 0.78125 24.117188 0.335938 19.453125 -1.390625 L 20.71875 -5.984375 C 26.070312 -3.890625 30.148438 -3.988281 32.953125 -6.28125 C 35.753906 -8.570312 37.15625 -12.578125 37.15625 -18.296875 C 37.15625 -21.035156 36.703125 -23.410156 35.796875 -25.421875 C 34.890625 -27.441406 33.640625 -29.003906 32.046875 -30.109375 C 30.453125 -31.222656 28.628906 -31.78125 26.578125 -31.78125 C 24.359375 -31.78125 22.460938 -31.125 20.890625 -29.8125 C 19.328125 -28.5 18.019531 -26.734375 16.96875 -24.515625 C 15.925781 -22.304688 15.039062 -19.875 14.3125 -17.21875 L 9.671875 0 L 4.046875 0 L 8.703125 -16.96875 L 2.171875 -36.25 L 7.796875 -36.25 L 11.71875 -23.984375 C 12.519531 -26.359375 13.59375 -28.507812 14.9375 -30.4375 C 16.289062 -32.375 17.914062 -33.914062 19.8125 -35.0625 C 21.707031 -36.207031 23.882812 -36.78125 26.34375 -36.78125 Z M 26.34375 -36.78125 "/></g></g></g><g fill="#000000" fill-opacity="1"><g transform="translate(688.311286, 1112.574035)"><g><path d="M 24.109375 -14.375 L 34.4375 -0.546875 L 34.4375 0 L 3.203125 0 L 3.203125 -4.828125 L 25.125 -4.828125 L 1.515625 -36.0625 L 1.515625 -36.25 L 7.859375 -36.25 L 21.265625 -18.25 C 23.554688 -19.375 25.304688 -21.394531 26.515625 -24.3125 C 27.722656 -27.226562 28.226562 -31.207031 28.03125 -36.25 L 33.53125 -36.25 C 33.726562 -30.207031 33.007812 -25.410156 31.375 -21.859375 C 29.75 -18.316406 27.328125 -15.820312 24.109375 -14.375 Z M 24.109375 -14.375 "/></g></g></g><g fill="#000000" fill-opacity="1"><g transform="translate(725.461993, 1112.574035)"><g><path d="M 33.40625 -19.625 L 33.40625 -4.828125 L 38.78125 -4.828125 L 38.78125 0 L 3.265625 0 L 3.265625 -4.828125 L 27.734375 -4.828125 L 27.734375 -19.265625 C 27.734375 -23.097656 26.851562 -26.203125 25.09375 -28.578125 C 23.34375 -30.953125 20.535156 -32.140625 16.671875 -32.140625 C 14.453125 -32.140625 12.335938 -31.816406 10.328125 -31.171875 C 8.316406 -30.523438 6.363281 -29.679688 4.46875 -28.640625 L 2.59375 -32.859375 C 4.96875 -34.273438 7.40625 -35.3125 9.90625 -35.96875 C 12.40625 -36.632812 14.941406 -36.96875 17.515625 -36.96875 C 21.304688 -36.96875 24.367188 -36.257812 26.703125 -34.84375 C 29.035156 -33.4375 30.734375 -31.445312 31.796875 -28.875 C 32.867188 -26.300781 33.40625 -23.21875 33.40625 -19.625 Z M 33.40625 -19.625 "/></g></g></g><g fill="#000000" fill-opacity="1"><g transform="translate(765.331019, 1112.574035)"><g/></g></g><g fill="#000000" fill-opacity="1"><g transform="translate(783.453358, 1112.574035)"><g><path d="M 4.953125 -36.25 L 10.625 -36.25 L 10.625 0 L 4.953125 0 Z M 4.953125 -36.25 "/></g></g></g><g fill="#000000" fill-opacity="1"><g transform="translate(799.098924, 1112.574035)"><g><path d="M 4.34375 -36.25 L 24.15625 -36.25 C 30.125 -36.25 34.445312 -34.878906 37.125 -32.140625 C 39.800781 -29.398438 41.140625 -24.96875 41.140625 -18.84375 L 41.140625 0 L 35.453125 0 L 35.453125 -18.84375 C 35.453125 -23.15625 34.546875 -26.328125 32.734375 -28.359375 C 30.921875 -30.390625 28.023438 -31.40625 24.046875 -31.40625 L 15.15625 -31.40625 L 15.15625 -8.21875 C 15.15625 -5.28125 14.441406 -3.113281 13.015625 -1.71875 C 11.585938 -0.332031 9.726562 0.359375 7.4375 0.359375 C 6.382812 0.359375 5.210938 0.257812 3.921875 0.0625 C 2.640625 -0.132812 1.570312 -0.378906 0.71875 -0.671875 L 1.515625 -5.140625 C 2.117188 -4.929688 2.75 -4.765625 3.40625 -4.640625 C 4.070312 -4.523438 4.828125 -4.46875 5.671875 -4.46875 C 7.085938 -4.46875 8.085938 -4.890625 8.671875 -5.734375 C 9.253906 -6.578125 9.546875 -7.925781 9.546875 -9.78125 L 9.546875 -31.40625 L 4.34375 -31.40625 Z M 4.34375 -36.25 "/></g></g></g><g fill="#000000" fill-opacity="1"><g transform="translate(844.767091, 1112.574035)"><g><path d="M 4.953125 -36.25 L 10.625 -36.25 L 10.625 0 L 4.953125 0 Z M 4.953125 -36.25 "/></g></g></g><g fill="#000000" fill-opacity="1"><g transform="translate(860.412703, 1112.574035)"><g><path d="M 29.0625 -12.140625 L 38.59375 -0.234375 L 38.59375 0 L 32.265625 0 L 15.890625 -20.421875 C 14.316406 -19.535156 12.992188 -18.273438 11.921875 -16.640625 C 10.859375 -15.015625 10.09375 -12.859375 9.625 -10.171875 C 9.164062 -7.492188 8.976562 -4.101562 9.0625 0 L 3.390625 0 C 3.304688 -4.832031 3.601562 -8.828125 4.28125 -11.984375 C 4.96875 -15.148438 6.035156 -17.6875 7.484375 -19.59375 C 8.941406 -21.507812 10.734375 -23.015625 12.859375 -24.109375 L 3.328125 -36 L 3.328125 -36.25 L 9.671875 -36.25 L 26.03125 -15.890625 C 27.644531 -16.773438 28.960938 -18.03125 29.984375 -19.65625 C 31.015625 -21.289062 31.769531 -23.445312 32.25 -26.125 C 32.738281 -28.800781 32.941406 -32.175781 32.859375 -36.25 L 38.546875 -36.25 C 38.660156 -31.457031 38.363281 -27.46875 37.65625 -24.28125 C 36.957031 -21.101562 35.890625 -18.554688 34.453125 -16.640625 C 33.023438 -14.722656 31.226562 -13.222656 29.0625 -12.140625 Z M 29.0625 -12.140625 "/></g></g></g><g fill="#000000" fill-opacity="1"><g transform="translate(902.637636, 1112.574035)"><g/></g></g><g fill="#000000" fill-opacity="1"><g transform="translate(920.759929, 1112.574035)"><g><path d="M 4.71875 -31.40625 L 4.71875 -36.25 L 38 -36.25 L 38 -15.28125 C 38 -11.375 37.460938 -8.269531 36.390625 -5.96875 C 35.328125 -3.675781 33.835938 -2.035156 31.921875 -1.046875 C 30.015625 -0.0664062 27.789062 0.421875 25.25 0.421875 C 22.59375 0.421875 20.15625 0.078125 17.9375 -0.609375 L 18.609375 -5.3125 C 19.535156 -5.03125 20.519531 -4.804688 21.5625 -4.640625 C 22.613281 -4.484375 23.601562 -4.40625 24.53125 -4.40625 C 27.269531 -4.40625 29.28125 -5.238281 30.5625 -6.90625 C 31.851562 -8.582031 32.5 -11.554688 32.5 -15.828125 L 32.5 -31.40625 Z M 5.140625 -20.234375 L 10.625 -20.96875 L 10.625 10.515625 L 5.140625 10.515625 Z M 5.140625 -20.234375 "/></g></g></g><g fill="#000000" fill-opacity="1"><g transform="translate(963.528571, 1112.574035)"><g><path d="M 4.53125 -14.796875 L 4.53125 -36.25 L 10.203125 -36.25 L 10.203125 -15.765625 Z M 4.53125 -14.796875 "/></g></g></g><g fill="#000000" fill-opacity="1"><g transform="translate(978.268016, 1112.574035)"><g><path d="M 24.046875 -36.25 L 24.046875 -31.40625 C 21.140625 -31.40625 18.78125 -30.863281 16.96875 -29.78125 C 15.15625 -28.695312 13.945312 -26.9375 13.34375 -24.5 C 12.738281 -22.0625 12.789062 -18.835938 13.5 -14.828125 C 14.207031 -10.816406 15.609375 -5.875 17.703125 0 L 11.71875 0 C 8.65625 -8.695312 7.273438 -15.734375 7.578125 -21.109375 C 7.878906 -26.484375 10.207031 -29.914062 14.5625 -31.40625 L 2.78125 -31.40625 L 2.78125 -36.25 Z M 24.046875 -36.25 "/></g></g></g><g fill="#000000" fill-opacity="1"><g transform="translate(1004.303718, 1112.574035)"><g><path d="M 4.953125 -36.25 L 21.5625 -36.25 C 27.363281 -36.25 31.648438 -34.859375 34.421875 -32.078125 C 37.203125 -29.296875 38.59375 -24.925781 38.59375 -18.96875 L 38.59375 0 L 32.921875 0 L 32.921875 -18.96875 C 32.921875 -23.15625 32.003906 -26.273438 30.171875 -28.328125 C 28.335938 -30.378906 25.46875 -31.40625 21.5625 -31.40625 L 10.625 -31.40625 L 10.625 0 L 4.953125 0 Z M 4.953125 -36.25 "/></g></g></g><g fill="#000000" fill-opacity="1"><g transform="translate(1047.132747, 1112.574035)"><g><path d="M 19.09375 0 L 3.203125 0 L 3.203125 -4.828125 L 13.40625 -4.828125 L 13.40625 -23.984375 C 13.40625 -26.484375 12.992188 -28.34375 12.171875 -29.5625 C 11.347656 -30.789062 9.925781 -31.40625 7.90625 -31.40625 L 4.53125 -31.40625 L 4.53125 -36.25 L 9.546875 -36.25 C 12.929688 -36.25 15.367188 -35.34375 16.859375 -33.53125 C 18.347656 -31.71875 19.09375 -29.019531 19.09375 -25.4375 Z M 19.09375 0 "/></g></g></g><g fill="#000000" fill-opacity="1"><g transform="translate(599.75302, 1210.012633)"><g><path d="M 4.953125 -36.25 L 22.171875 -36.25 C 28.128906 -36.25 32.445312 -34.9375 35.125 -32.3125 C 37.800781 -29.695312 39.140625 -25.570312 39.140625 -19.9375 L 39.140625 0 L 4.953125 0 Z M 10.625 -31.40625 L 10.625 -4.828125 L 33.46875 -4.828125 L 33.46875 -19.515625 C 33.46875 -23.578125 32.5625 -26.570312 30.75 -28.5 C 28.9375 -30.4375 26.054688 -31.40625 22.109375 -31.40625 Z M 10.625 -31.40625 "/></g></g></g><g fill="#000000" fill-opacity="1"><g transform="translate(643.488171, 1210.012633)"><g><path d="M 4.953125 -36.25 L 10.625 -36.25 L 10.625 0 L 4.953125 0 Z M 4.953125 -36.25 "/></g></g></g><g fill="#000000" fill-opacity="1"><g transform="translate(659.13375, 1210.012633)"><g><path d="M 26.34375 -36.78125 C 29.601562 -36.78125 32.441406 -35.992188 34.859375 -34.421875 C 37.273438 -32.859375 39.15625 -30.6875 40.5 -27.90625 C 41.851562 -25.125 42.53125 -21.921875 42.53125 -18.296875 C 42.53125 -13.265625 41.582031 -9.175781 39.6875 -6.03125 C 37.789062 -2.894531 35.109375 -0.90625 31.640625 -0.0625 C 28.179688 0.78125 24.117188 0.335938 19.453125 -1.390625 L 20.71875 -5.984375 C 26.070312 -3.890625 30.148438 -3.988281 32.953125 -6.28125 C 35.753906 -8.570312 37.15625 -12.578125 37.15625 -18.296875 C 37.15625 -21.035156 36.703125 -23.410156 35.796875 -25.421875 C 34.890625 -27.441406 33.640625 -29.003906 32.046875 -30.109375 C 30.453125 -31.222656 28.628906 -31.78125 26.578125 -31.78125 C 24.359375 -31.78125 22.460938 -31.125 20.890625 -29.8125 C 19.328125 -28.5 18.019531 -26.734375 16.96875 -24.515625 C 15.925781 -22.304688 15.039062 -19.875 14.3125 -17.21875 L 9.671875 0 L 4.046875 0 L 8.703125 -16.96875 L 2.171875 -36.25 L 7.796875 -36.25 L 11.71875 -23.984375 C 12.519531 -26.359375 13.59375 -28.507812 14.9375 -30.4375 C 16.289062 -32.375 17.914062 -33.914062 19.8125 -35.0625 C 21.707031 -36.207031 23.882812 -36.78125 26.34375 -36.78125 Z M 26.34375 -36.78125 "/></g></g></g><g fill="#000000" fill-opacity="1"><g transform="translate(704.74153, 1210.012633)"><g><path d="M 4.53125 -14.796875 L 4.53125 -36.25 L 10.203125 -36.25 L 10.203125 -15.765625 Z M 4.53125 -14.796875 "/></g></g></g><g fill="#000000" fill-opacity="1"><g transform="translate(719.843456, 1210.012633)"><g><path d="M 3.859375 -36.25 L 21.4375 -36.25 C 27.039062 -36.25 31.363281 -34.6875 34.40625 -31.5625 C 37.445312 -28.4375 38.96875 -24.054688 38.96875 -18.421875 C 38.96875 -14.515625 38.257812 -11.128906 36.84375 -8.265625 C 35.4375 -5.410156 33.421875 -3.195312 30.796875 -1.625 C 28.179688 -0.0625 25.0625 0.71875 21.4375 0.71875 C 17.820312 0.71875 14.703125 -0.0625 12.078125 -1.625 C 9.460938 -3.195312 7.4375 -5.410156 6 -8.265625 C 4.570312 -11.128906 3.859375 -14.515625 3.859375 -18.421875 Z M 21.4375 -4.109375 C 25.144531 -4.109375 28.046875 -5.40625 30.140625 -8 C 32.234375 -10.601562 33.28125 -14.078125 33.28125 -18.421875 C 33.28125 -22.453125 32.265625 -25.625 30.234375 -27.9375 C 28.203125 -30.25 25.269531 -31.40625 21.4375 -31.40625 L 9.546875 -31.40625 L 9.546875 -18.421875 C 9.546875 -14.078125 10.601562 -10.601562 12.71875 -8 C 14.832031 -5.40625 17.738281 -4.109375 21.4375 -4.109375 Z M 21.4375 -4.109375 "/></g></g></g><g fill="#000000" fill-opacity="1"><g transform="translate(761.524724, 1210.012633)"><g><path d="M 4.71875 -31.40625 L 4.71875 -36.25 L 38 -36.25 L 38 -15.28125 C 38 -11.375 37.460938 -8.269531 36.390625 -5.96875 C 35.328125 -3.675781 33.835938 -2.035156 31.921875 -1.046875 C 30.015625 -0.0664062 27.789062 0.421875 25.25 0.421875 C 22.59375 0.421875 20.15625 0.078125 17.9375 -0.609375 L 18.609375 -5.3125 C 19.535156 -5.03125 20.519531 -4.804688 21.5625 -4.640625 C 22.613281 -4.484375 23.601562 -4.40625 24.53125 -4.40625 C 27.269531 -4.40625 29.28125 -5.238281 30.5625 -6.90625 C 31.851562 -8.582031 32.5 -11.554688 32.5 -15.828125 L 32.5 -31.40625 Z M 5.140625 -20.234375 L 10.625 -20.96875 L 10.625 10.515625 L 5.140625 10.515625 Z M 5.140625 -20.234375 "/></g></g></g><g fill="#000000" fill-opacity="1"><g transform="translate(804.293332, 1210.012633)"><g><path d="M 26.34375 -36.78125 C 29.601562 -36.78125 32.441406 -35.992188 34.859375 -34.421875 C 37.273438 -32.859375 39.15625 -30.6875 40.5 -27.90625 C 41.851562 -25.125 42.53125 -21.921875 42.53125 -18.296875 C 42.53125 -13.265625 41.582031 -9.175781 39.6875 -6.03125 C 37.789062 -2.894531 35.109375 -0.90625 31.640625 -0.0625 C 28.179688 0.78125 24.117188 0.335938 19.453125 -1.390625 L 20.71875 -5.984375 C 26.070312 -3.890625 30.148438 -3.988281 32.953125 -6.28125 C 35.753906 -8.570312 37.15625 -12.578125 37.15625 -18.296875 C 37.15625 -21.035156 36.703125 -23.410156 35.796875 -25.421875 C 34.890625 -27.441406 33.640625 -29.003906 32.046875 -30.109375 C 30.453125 -31.222656 28.628906 -31.78125 26.578125 -31.78125 C 24.359375 -31.78125 22.460938 -31.125 20.890625 -29.8125 C 19.328125 -28.5 18.019531 -26.734375 16.96875 -24.515625 C 15.925781 -22.304688 15.039062 -19.875 14.3125 -17.21875 L 9.671875 0 L 4.046875 0 L 8.703125 -16.96875 L 2.171875 -36.25 L 7.796875 -36.25 L 11.71875 -23.984375 C 12.519531 -26.359375 13.59375 -28.507812 14.9375 -30.4375 C 16.289062 -32.375 17.914062 -33.914062 19.8125 -35.0625 C 21.707031 -36.207031 23.882812 -36.78125 26.34375 -36.78125 Z M 26.34375 -36.78125 "/></g></g></g><g fill="#000000" fill-opacity="1"><g transform="translate(849.901112, 1210.012633)"><g/></g></g><g fill="#000000" fill-opacity="1"><g transform="translate(868.023405, 1210.012633)"><g><path d="M 4.953125 -36.25 L 22.171875 -36.25 C 28.128906 -36.25 32.445312 -34.9375 35.125 -32.3125 C 37.800781 -29.695312 39.140625 -25.570312 39.140625 -19.9375 L 39.140625 0 L 4.953125 0 Z M 10.625 -31.40625 L 10.625 -4.828125 L 33.46875 -4.828125 L 33.46875 -19.515625 C 33.46875 -23.578125 32.5625 -26.570312 30.75 -28.5 C 28.9375 -30.4375 26.054688 -31.40625 22.109375 -31.40625 Z M 10.625 -31.40625 "/></g></g></g><g fill="#000000" fill-opacity="1"><g transform="translate(911.758556, 1210.012633)"><g><path d="M 4.953125 -36.25 L 10.625 -36.25 L 10.625 0 L 4.953125 0 Z M 4.953125 -36.25 "/></g></g></g><g fill="#000000" fill-opacity="1"><g transform="translate(927.404145, 1210.012633)"><g><path d="M 26.34375 -36.78125 C 29.601562 -36.78125 32.441406 -35.992188 34.859375 -34.421875 C 37.273438 -32.859375 39.15625 -30.6875 40.5 -27.90625 C 41.851562 -25.125 42.53125 -21.921875 42.53125 -18.296875 C 42.53125 -13.265625 41.582031 -9.175781 39.6875 -6.03125 C 37.789062 -2.894531 35.109375 -0.90625 31.640625 -0.0625 C 28.179688 0.78125 24.117188 0.335938 19.453125 -1.390625 L 20.71875 -5.984375 C 26.070312 -3.890625 30.148438 -3.988281 32.953125 -6.28125 C 35.753906 -8.570312 37.15625 -12.578125 37.15625 -18.296875 C 37.15625 -21.035156 36.703125 -23.410156 35.796875 -25.421875 C 34.890625 -27.441406 33.640625 -29.003906 32.046875 -30.109375 C 30.453125 -31.222656 28.628906 -31.78125 26.578125 -31.78125 C 24.359375 -31.78125 22.460938 -31.125 20.890625 -29.8125 C 19.328125 -28.5 18.019531 -26.734375 16.96875 -24.515625 C 15.925781 -22.304688 15.039062 -19.875 14.3125 -17.21875 L 9.671875 0 L 4.046875 0 L 8.703125 -16.96875 L 2.171875 -36.25 L 7.796875 -36.25 L 11.71875 -23.984375 C 12.519531 -26.359375 13.59375 -28.507812 14.9375 -30.4375 C 16.289062 -32.375 17.914062 -33.914062 19.8125 -35.0625 C 21.707031 -36.207031 23.882812 -36.78125 26.34375 -36.78125 Z M 26.34375 -36.78125 "/></g></g></g><g fill="#000000" fill-opacity="1"><g transform="translate(973.011926, 1210.012633)"><g><path d="M 4.53125 -14.796875 L 4.53125 -36.25 L 10.203125 -36.25 L 10.203125 -15.765625 Z M 4.53125 -14.796875 "/></g></g></g><g fill="#000000" fill-opacity="1"><g transform="translate(986.78484, 1210.012633)"><g><path d="M 19.09375 0 L 3.203125 0 L 3.203125 -4.828125 L 13.40625 -4.828125 L 13.40625 -23.984375 C 13.40625 -26.484375 12.992188 -28.34375 12.171875 -29.5625 C 11.347656 -30.789062 9.925781 -31.40625 7.90625 -31.40625 L 4.53125 -31.40625 L 4.53125 -36.25 L 9.546875 -36.25 C 12.929688 -36.25 15.367188 -35.34375 16.859375 -33.53125 C 18.347656 -31.71875 19.09375 -29.019531 19.09375 -25.4375 Z M 19.09375 0 "/></g></g></g><g fill="#000000" fill-opacity="1"><g transform="translate(1010.464636, 1210.012633)"><g><path d="M 4.53125 -14.796875 L 4.53125 -36.25 L 10.203125 -36.25 L 10.203125 -15.765625 Z M 4.53125 -14.796875 "/></g></g></g><g fill="#000000" fill-opacity="1"><g transform="translate(1025.204127, 1210.012633)"><g><path d="M 26.34375 -36.78125 C 29.601562 -36.78125 32.441406 -35.992188 34.859375 -34.421875 C 37.273438 -32.859375 39.15625 -30.6875 40.5 -27.90625 C 41.851562 -25.125 42.53125 -21.921875 42.53125 -18.296875 C 42.53125 -13.265625 41.582031 -9.175781 39.6875 -6.03125 C 37.789062 -2.894531 35.109375 -0.90625 31.640625 -0.0625 C 28.179688 0.78125 24.117188 0.335938 19.453125 -1.390625 L 20.71875 -5.984375 C 26.070312 -3.890625 30.148438 -3.988281 32.953125 -6.28125 C 35.753906 -8.570312 37.15625 -12.578125 37.15625 -18.296875 C 37.15625 -21.035156 36.703125 -23.410156 35.796875 -25.421875 C 34.890625 -27.441406 33.640625 -29.003906 32.046875 -30.109375 C 30.453125 -31.222656 28.628906 -31.78125 26.578125 -31.78125 C 24.359375 -31.78125 22.460938 -31.125 20.890625 -29.8125 C 19.328125 -28.5 18.019531 -26.734375 16.96875 -24.515625 C 15.925781 -22.304688 15.039062 -19.875 14.3125 -17.21875 L 9.671875 0 L 4.046875 0 L 8.703125 -16.96875 L 2.171875 -36.25 L 7.796875 -36.25 L 11.71875 -23.984375 C 12.519531 -26.359375 13.59375 -28.507812 14.9375 -30.4375 C 16.289062 -32.375 17.914062 -33.914062 19.8125 -35.0625 C 21.707031 -36.207031 23.882812 -36.78125 26.34375 -36.78125 Z M 26.34375 -36.78125 "/></g></g></g><g transform="matrix(1, 0, 0, 1, 916, 158)"><g clip-path="url(#7e27300830)"><g fill="#ffffff" fill-opacity="1"><g transform="translate(0.732194, 107.897095)"><g><path d="M 0.75 -48.359375 L 27.421875 -74.40625 L 38.90625 -74.40625 L 38.90625 0 L 20.828125 0 L 20.828125 -46.453125 L 11.265625 -37.203125 Z M 0.75 -48.359375 "/></g></g></g></g></g><g clip-path="url(#091b12c156)"><g clip-path="url(#479f662305)"><g clip-path="url(#f4b50c4c24)"><g clip-path="url(#9b915c7bf7)"><path fill="#b80000" d="M 281.300781 1455.347656 C 265.828125 1471.917969 233.859375 1467.085938 209.902344 1444.679688 C 185.949219 1422.277344 179.082031 1390.636719 194.550781 1374.132812 C 194.835938 1373.886719 195.0625 1373.574219 195.347656 1373.328125 C 211.140625 1357.785156 242.429688 1362.761719 266.015625 1384.804688 C 280.347656 1398.230469 288.550781 1414.898438 289.5 1429.652344 C 290.105469 1439.574219 287.511719 1448.640625 281.300781 1455.347656 Z M 281.300781 1455.347656 " fill-opacity="1" fill-rule="nonzero"/></g></g></g></g><g clip-path="url(#8fc98618ad)"><g clip-path="url(#13d5fc35a4)"><g clip-path="url(#6b9702777e)"><g clip-path="url(#fc9c0b12a1)"><path fill="#b80000" d="M 262.457031 1429.148438 C 253.988281 1438.210938 238.074219 1437 226.84375 1426.492188 C 221.816406 1421.753906 218.613281 1415.957031 217.34375 1410.1875 C 215.839844 1403.128906 217.269531 1396.101562 221.875 1391.136719 C 230.339844 1382.074219 246.253906 1383.285156 257.488281 1393.792969 C 267.789062 1403.425781 270.460938 1417.515625 264.316406 1426.765625 C 264.234375 1426.957031 264.089844 1427.078125 264.007812 1427.273438 C 263.488281 1427.898438 262.972656 1428.523438 262.457031 1429.148438 Z M 262.457031 1429.148438 " fill-opacity="1" fill-rule="nonzero"/></g></g></g></g><g clip-path="url(#d493096247)"><g clip-path="url(#1ba6431844)"><g clip-path="url(#ba1ecf9c2f)"><g clip-path="url(#cc3a01d53c)"><path fill="#000000" d="M 281.300781 1455.347656 C 265.828125 1471.917969 233.859375 1467.085938 209.902344 1444.679688 C 185.949219 1422.277344 179.082031 1390.636719 194.550781 1374.132812 C 194.835938 1373.886719 195.0625 1373.574219 195.347656 1373.328125 C 194.671875 1378.410156 194.109375 1385.4375 194.894531 1393.105469 C 196.820312 1412.34375 205.699219 1422.261719 214.363281 1431.496094 C 215.472656 1432.652344 232.953125 1450.933594 260.300781 1454.328125 C 265.191406 1454.921875 271.304688 1455.210938 277.417969 1450.566406 C 286.15625 1443.929688 289.054688 1431.886719 289.496094 1429.71875 C 290.105469 1439.574219 287.511719 1448.640625 281.300781 1455.347656 Z M 281.300781 1455.347656 " fill-opacity="0.1" fill-rule="nonzero"/></g></g></g></g><g clip-path="url(#cd1f32a7b0)"><g clip-path="url(#421e086bb8)"><g clip-path="url(#fca05d84e6)"><g clip-path="url(#56a3ef5195)"><path fill="#000000" d="M 230.1875 1398.941406 C 222.601562 1402 218.816406 1405.96875 217.34375 1410.1875 C 215.839844 1403.128906 217.269531 1396.101562 221.875 1391.136719 C 230.339844 1382.074219 246.253906 1383.285156 257.488281 1393.792969 C 267.789062 1403.425781 270.460938 1417.515625 264.316406 1426.765625 L 264.007812 1427.273438 C 264.011719 1427.207031 258.511719 1387.671875 230.1875 1398.941406 Z M 230.1875 1398.941406 " fill-opacity="0.1" fill-rule="nonzero"/></g></g></g></g><g clip-path="url(#f32e95ba93)"><g clip-path="url(#b8806c6a45)"><g clip-path="url(#af947d3321)"><g clip-path="url(#2424bc2d41)"><path fill="#ecf0f1" d="M 213.621094 1366.789062 C 213.933594 1366.214844 238.402344 1365.574219 258.207031 1379.839844 C 277.753906 1393.953125 283.085938 1415.660156 282.589844 1416.023438 C 282.089844 1416.449219 276.339844 1396.640625 256.671875 1382.320312 C 236.371094 1367.613281 213.238281 1367.359375 213.621094 1366.789062 Z M 213.621094 1366.789062 " fill-opacity="0.1" fill-rule="nonzero"/></g></g></g></g><g clip-path="url(#0c7b7e9c77)"><g clip-path="url(#8c23426ed0)"><g clip-path="url(#bca3004a51)"><g clip-path="url(#02031394a6)"><path fill="#b80000" d="M 543.746094 1546.191406 C 560.175781 1600.878906 513.273438 1663.230469 439.03125 1685.492188 C 364.792969 1707.757812 291.308594 1681.511719 274.941406 1626.894531 C 274.679688 1626.003906 274.421875 1625.050781 274.160156 1624.164062 C 260.078125 1570.195312 306.648438 1509.484375 379.589844 1487.585938 C 423.957031 1474.265625 468.070312 1478.273438 499.855469 1495.367188 C 521.285156 1506.828125 537.101562 1524.242188 543.746094 1546.191406 Z M 543.746094 1546.191406 " fill-opacity="1" fill-rule="nonzero"/></g></g></g></g><g clip-path="url(#ac7e10c4c7)"><g clip-path="url(#6e66981d6f)"><g clip-path="url(#5088ad9d8e)"><g clip-path="url(#cedda169dd)"><path fill="#b80000" d="M 467.574219 1552.621094 C 476.519531 1582.492188 455.6875 1615.113281 420.960938 1625.535156 C 405.371094 1630.222656 389.609375 1629.625 376.183594 1624.808594 C 359.777344 1618.957031 346.875 1606.78125 341.921875 1590.371094 C 332.976562 1560.5 353.808594 1527.878906 388.535156 1517.457031 C 420.390625 1507.9375 452.746094 1520.40625 464.804688 1545.59375 C 465.035156 1546.011719 465.199219 1546.492188 465.429688 1546.910156 C 466.289062 1548.714844 467 1550.640625 467.574219 1552.621094 Z M 467.574219 1552.621094 " fill-opacity="1" fill-rule="nonzero"/></g></g></g></g><g clip-path="url(#dd38473b5c)"><g clip-path="url(#d8c2daa596)"><g clip-path="url(#d0b5db07c9)"><g clip-path="url(#2446edbf1c)"><path fill="#000000" d="M 543.746094 1546.191406 C 560.175781 1600.878906 513.273438 1663.230469 439.03125 1685.492188 C 364.792969 1707.757812 291.308594 1681.511719 274.941406 1626.894531 C 274.679688 1626.003906 274.421875 1625.050781 274.160156 1624.164062 C 283.925781 1632.152344 297.84375 1642.472656 314.664062 1650.695312 C 356.832031 1671.425781 387.621094 1665.222656 416.761719 1658.753906 C 420.496094 1657.921875 478.511719 1644.164062 517.15625 1589.890625 C 524.003906 1580.230469 531.636719 1567.433594 529.105469 1548.21875 C 525.496094 1520.90625 503.824219 1499.15625 499.929688 1495.304688 C 521.285156 1506.828125 537.101562 1524.242188 543.746094 1546.191406 Z M 543.746094 1546.191406 " fill-opacity="0.1" fill-rule="nonzero"/></g></g></g></g><g clip-path="url(#71a784ac33)"><g clip-path="url(#7f5c58c2b9)"><g clip-path="url(#c27c2558b6)"><g clip-path="url(#54fc18560e)"><path fill="#000000" d="M 367.695312 1582.632812 C 365.199219 1602.914062 369.140625 1616.171875 376.25 1624.816406 C 359.839844 1618.960938 346.941406 1606.785156 341.988281 1590.375 C 333.042969 1560.503906 353.875 1527.886719 388.601562 1517.460938 C 420.457031 1507.941406 452.8125 1520.414062 464.871094 1545.597656 L 465.496094 1546.914062 C 465.496094 1546.914062 377.074219 1507.332031 367.695312 1582.632812 Z M 367.695312 1582.632812 " fill-opacity="0.1" fill-rule="nonzero"/></g></g></g></g><g clip-path="url(#03b5b46ae9)"><g clip-path="url(#21bd961057)"><g clip-path="url(#a175b99e87)"><g clip-path="url(#1f339065ef)"><path fill="#ecf0f1" d="M 281.851562 1576.542969 C 281.097656 1575.148438 307.988281 1521.867188 360.546875 1497.933594 C 412.410156 1474.339844 463.507812 1491.050781 463.851562 1492.613281 C 464.125 1494.167969 416.488281 1480.871094 364.03125 1504.414062 C 309.765625 1528.816406 282.605469 1577.941406 281.851562 1576.542969 Z M 281.851562 1576.542969 " fill-opacity="0.1" fill-rule="nonzero"/></g></g></g></g><g clip-path="url(#4fe178f7dd)"><g clip-path="url(#c7ea582acf)"><g clip-path="url(#342c685677)"><g clip-path="url(#c07664b8fd)"><path fill="#b80000" d="M 82.921875 1416.679688 C 93.917969 1453.386719 62.46875 1495.296875 12.5625 1510.304688 C -37.339844 1525.246094 -86.695312 1507.609375 -97.695312 1470.902344 C -97.84375 1470.289062 -98.0625 1469.671875 -98.214844 1469.058594 C -107.714844 1432.804688 -76.421875 1392.015625 -27.335938 1377.277344 C 2.472656 1368.328125 32.078125 1371.035156 53.507812 1382.496094 C 67.828125 1390.25 78.503906 1401.914062 82.921875 1416.679688 Z M 82.921875 1416.679688 " fill-opacity="1" fill-rule="nonzero"/></g></g></g></g><g clip-path="url(#4b3d7d164b)"><g clip-path="url(#a5b11556df)"><g clip-path="url(#65115508ab)"><g clip-path="url(#fbfede06fd)"><path fill="#b80000" d="M 31.800781 1421.050781 C 37.796875 1441.078125 23.828125 1463.039062 0.515625 1470.042969 C -9.945312 1473.207031 -20.585938 1472.753906 -29.601562 1469.558594 C -40.628906 1465.605469 -49.3125 1457.4375 -52.632812 1446.429688 C -58.628906 1426.402344 -44.660156 1404.441406 -21.347656 1397.4375 C 0.0507812 1391.015625 21.792969 1399.429688 29.914062 1416.292969 C 30.023438 1416.570312 30.195312 1416.917969 30.308594 1417.191406 C 30.878906 1418.375 31.375 1419.679688 31.800781 1421.050781 Z M 31.800781 1421.050781 " fill-opacity="1" fill-rule="nonzero"/></g></g></g></g><g clip-path="url(#7196591e12)"><g clip-path="url(#74a3e1786d)"><g clip-path="url(#4c7c69a28b)"><g clip-path="url(#d864c38c93)"><path fill="#000000" d="M 82.921875 1416.679688 C 93.917969 1453.386719 62.46875 1495.296875 12.5625 1510.304688 C -37.339844 1525.246094 -86.695312 1507.609375 -97.695312 1470.902344 C -97.84375 1470.289062 -98.0625 1469.671875 -98.214844 1469.058594 C -91.640625 1474.457031 -82.320312 1481.339844 -71.027344 1486.917969 C -42.722656 1500.863281 -21.96875 1496.660156 -2.410156 1492.355469 C 0.101562 1491.824219 39.074219 1482.542969 65.019531 1446.0625 C 69.609375 1439.5625 74.769531 1430.96875 73.066406 1418.089844 C 70.667969 1399.75 56.101562 1385.105469 53.433594 1382.554688 C 67.828125 1390.25 78.503906 1401.914062 82.921875 1416.679688 Z M 82.921875 1416.679688 " fill-opacity="0.1" fill-rule="nonzero"/></g></g></g></g><g clip-path="url(#b048df250b)"><g clip-path="url(#730b7cc21d)"><g clip-path="url(#8218977d63)"><g clip-path="url(#f255a2fdab)"><path fill="#000000" d="M -35.328125 1441.148438 C -37.019531 1454.753906 -34.402344 1463.703125 -29.597656 1469.492188 C -40.621094 1465.539062 -49.308594 1457.371094 -52.625 1446.363281 C -58.625 1426.335938 -44.652344 1404.375 -21.339844 1397.371094 C 0.0546875 1390.949219 21.796875 1399.363281 29.917969 1416.226562 L 30.3125 1417.128906 C 30.3125 1417.128906 -29.066406 1390.546875 -35.328125 1441.148438 Z M -35.328125 1441.148438 " fill-opacity="0.1" fill-rule="nonzero"/></g></g></g></g><g clip-path="url(#25c658776d)"><g clip-path="url(#4718137e56)"><g clip-path="url(#bd4c882cb1)"><g clip-path="url(#be67eec33b)"><path fill="#ecf0f1" d="M -93.046875 1437.117188 C -93.578125 1436.207031 -75.488281 1400.363281 -40.175781 1384.316406 C -5.34375 1368.433594 29.050781 1379.664062 29.230469 1380.746094 C 29.414062 1381.761719 -2.628906 1372.855469 -37.859375 1388.707031 C -74.257812 1405 -92.519531 1438.027344 -93.046875 1437.117188 Z M -93.046875 1437.117188 " fill-opacity="0.1" fill-rule="nonzero"/></g></g></g></g><g clip-path="url(#307e3e9f92)"><g clip-path="url(#749018791f)"><g clip-path="url(#31a5884c2c)"><g clip-path="url(#c9e09b5f22)"><path fill="#b80000" d="M 192.207031 1761.6875 C 170.75 1814.539062 95.089844 1833.753906 23.300781 1804.644531 C -48.480469 1775.464844 -89.308594 1708.945312 -67.789062 1656.097656 C -67.449219 1655.191406 -67.046875 1654.355469 -66.648438 1653.523438 C -43.753906 1602.65625 30.488281 1584.527344 101.109375 1613.210938 C 144.007812 1630.664062 175.835938 1661.371094 189.917969 1694.589844 C 199.464844 1716.972656 200.851562 1740.433594 192.207031 1761.6875 Z M 192.207031 1761.6875 " fill-opacity="1" fill-rule="nonzero"/></g></g></g></g><g clip-path="url(#f61a262389)"><g clip-path="url(#be728e6ee2)"><g clip-path="url(#77d75873f8)"><g clip-path="url(#81312be7ef)"><path fill="#b80000" d="M 128.914062 1718.984375 C 117.191406 1747.863281 80.507812 1760.199219 46.910156 1746.5625 C 31.792969 1740.410156 19.945312 1730.054688 12.515625 1717.914062 C 3.433594 1703.042969 0.972656 1685.5 7.449219 1669.609375 C 19.175781 1640.726562 55.859375 1628.394531 89.457031 1642.03125 C 120.210938 1654.507812 137.679688 1684.59375 131.296875 1711.769531 C 131.191406 1712.226562 131.089844 1712.6875 130.914062 1713.207031 C 130.289062 1715.15625 129.667969 1717.109375 128.914062 1718.984375 Z M 128.914062 1718.984375 " fill-opacity="1" fill-rule="nonzero"/></g></g></g></g><g clip-path="url(#a37eae3633)"><g clip-path="url(#696e6cb55f)"><g clip-path="url(#d5d49bc84f)"><g clip-path="url(#54c65d6810)"><path fill="#000000" d="M 192.207031 1761.6875 C 170.75 1814.539062 95.089844 1833.753906 23.300781 1804.644531 C -48.480469 1775.464844 -89.308594 1708.945312 -67.789062 1656.097656 C -67.449219 1655.191406 -67.046875 1654.355469 -66.648438 1653.523438 C -64.101562 1665.867188 -59.636719 1682.570312 -51.734375 1699.617188 C -31.867188 1742.242188 -4.007812 1756.6875 22.753906 1769.90625 C 26.15625 1771.582031 80.007812 1797.183594 144.167969 1779.183594 C 155.566406 1775.960938 169.527344 1770.742188 179.597656 1754.207031 C 193.894531 1730.667969 190.675781 1700.121094 189.976562 1694.664062 C 199.464844 1716.972656 200.851562 1740.433594 192.207031 1761.6875 Z M 192.207031 1761.6875 " fill-opacity="0.1" fill-rule="nonzero"/></g></g></g></g><g clip-path="url(#5e66c608be)"><g clip-path="url(#4860c6d800)"><g clip-path="url(#6526a026cc)"><g clip-path="url(#f99aabfba8)"><path fill="#000000" d="M 32.257812 1679.738281 C 17.578125 1693.90625 12.34375 1706.761719 12.449219 1717.910156 C 3.367188 1703.039062 0.90625 1685.496094 7.382812 1669.601562 C 19.109375 1640.722656 55.792969 1628.386719 89.390625 1642.027344 C 120.144531 1654.5 137.613281 1684.589844 131.230469 1711.765625 L 130.847656 1713.199219 C 130.847656 1713.199219 86.730469 1626.933594 32.257812 1679.738281 Z M 32.257812 1679.738281 " fill-opacity="0.1" fill-rule="nonzero"/></g></g></g></g><g clip-path="url(#3eeefa2d31)"><g clip-path="url(#03518d4190)"><g clip-path="url(#a46c716b7d)"><g clip-path="url(#2bf8eb451b)"><path fill="#ecf0f1" d="M -30.832031 1621.238281 C -30.570312 1619.65625 23.777344 1594.996094 79.742188 1609.296875 C 134.984375 1623.402344 164.328125 1668.453125 163.546875 1669.859375 C 162.773438 1671.199219 133.976562 1630.992188 78.359375 1616.523438 C 20.855469 1601.5 -31.085938 1622.75 -30.832031 1621.238281 Z M -30.832031 1621.238281 " fill-opacity="0.1" fill-rule="nonzero"/></g></g></g></g></svg>